<?xml version="1.0" encoding="UTF-8"?><svg xmlns="http://www.w3.org/2000/svg" viewBox="0 0 374.3 72.39"><defs><style>.f{fill:#1b365d;}.g{fill:#782f40;}</style></defs><g id="a"/><g id="b"><g id="c"><g id="d"><path class="g" d="M64.05,23.96c-.41-.12-.86-.07-1.23,.15l-9.31,5.37c-1.43,.82-2.32,2.35-2.33,4v8.06c0,3.33-1.78,6.4-4.66,8.06l-27.92,16.17,9.31,5.38c2.88,1.66,6.43,1.66,9.31,0l23.28-13.45c2.88-1.66,4.65-4.74,4.65-8.06V25.45c0-.69-.44-1.29-1.1-1.49Zm-40.78,1.49c-2.88,1.66-4.65,4.74-4.65,8.06v24.19c0,.86,.69,1.55,1.55,1.55,.27,0,.54-.07,.78-.21l9.31-5.37c1.43-.82,2.32-2.35,2.33-4v-8.1c0-3.33,1.78-6.4,4.66-8.06l27.91-16.13-9.31-5.38c-2.88-1.66-6.43-1.66-9.31,0l-23.27,13.45Zm-4.65-2.69L46.54,6.63,37.23,1.25c-2.88-1.66-6.43-1.66-9.31,0L4.64,14.7C1.77,16.36,0,19.44,0,22.76H0v26.88c0,3.33,1.77,6.4,4.65,8.06l9.35,5.38V30.82c-.01-3.32,1.75-6.39,4.61-8.06h.01Z"/><path class="f" d="M137.83,53.7l-2.66-.57c-1-.19-1.71-.76-1.71-1.67,.15-1.17,1.22-2,2.39-1.86,1.54-.13,2.9,.98,3.08,2.51l4.22-1c-.23-2-2-5.4-7.33-5.4-4,0-7,2.77-7,6.12,0,2.62,1.63,4.79,5.24,5.58l2.47,.57c1.44,.3,2,1,2,1.82,0,1-.8,1.86-2.47,1.86-1.71,.18-3.24-1.07-3.41-2.77,0-.03,0-.05,0-.08l-4.33,1c.23,2.13,2.17,5.77,7.79,5.77,4.9,0,7.26-3.12,7.26-6.15,.01-2.73-1.85-4.97-5.53-5.73Zm8.7-26.18h5.05V15.74c0-4.1-2.13-7.41-6.76-7.41-2.17-.07-4.21,.99-5.4,2.81v-2.31h-4.9V27.52h5.05v-10.75c0-2.17,1.29-3.88,3.5-3.88,2.43,0,3.46,1.63,3.46,3.72v10.91Zm18.47,37.5h5v-18.69h-5v18.69Zm-43-28c-1.72,.1-3.04,1.57-2.94,3.29,.09,1.58,1.35,2.85,2.94,2.94,1.72,.1,3.19-1.22,3.29-2.94s-1.22-3.19-2.94-3.29c-.12,0-.24,0-.35,0Zm-2.51,28h5.05v-18.69h-5.05v18.69Zm59.47-43c0,3.61,2.28,5.78,5.93,5.78,.97,.03,1.94-.12,2.85-.46v-4.14c-.51,.11-1.04,.16-1.56,.15-1.44,0-2.2-.53-2.2-2.17v-7.87h3.76v-4.48h-3.74V3.2h-4.6v2.62c.18,1.48-.88,2.81-2.35,2.99-.18,.02-.36,.02-.54,.01h-.95v4.48h3.38l.02,8.72Zm21.2,6.08c4.6,0,7.56-2.7,8.51-5.93l-4.22-1.25c-.59,1.82-2.34,3-4.25,2.85-2.47,.09-4.55-1.8-4.71-4.26h13.37c0-.08,.08-.84,.08-1.56,0-6-3.46-9.69-9.23-9.69-4.79,0-9.19,3.88-9.19,9.84-.03,6.3,4.48,9.99,9.62,9.99h.02Zm-.38-15.72c2.89,0,4.1,1.82,4.18,3.69h-8.36c.16-2.15,2-3.79,4.16-3.7h.02Zm-104.1,15.73c4.07,0,6.73-1.82,7.94-3.65l.34,3.08h4.26V13.52h-13.45v4.56h8.51c-.3,1.9-2.24,5.24-7.22,5.24-4.52,0-8.51-3.15-8.51-9.23,0-6.38,4.41-9.16,8.47-9.16,3.34-.18,6.36,1.96,7.29,5.17l5-1.79C107,4.2,103.09,0,96,0s-13.79,5.36-13.79,14.06,6.22,14.02,13.47,14.02Zm3.15,29.45l-8.09-19.46h-6.91v26.94h5v-18.73l7.75,18.73h4.42l7.75-18.88v18.88h5.17v-26.94h-7.14l-7.95,19.46Zm31.43-35.34l-4.26-1.29c-.59,1.82-2.35,3-4.26,2.85-2.47,.09-4.55-1.8-4.71-4.26h13.37c0-.08,.08-.84,.08-1.56,0-6-3.46-9.69-9.23-9.69-4.79,0-9.19,3.88-9.19,9.84,0,6.31,4.52,10,9.65,10,4.64,0,7.6-2.7,8.55-5.89Zm-8.89-9.8c2.89,0,4.1,1.82,4.18,3.69h-8.36c.14-2.17,2-3.83,4.18-3.73v.04Zm34,41.34l-2.66-.57c-1-.19-1.71-.76-1.71-1.67,.15-1.17,1.22-2,2.39-1.86,1.54-.13,2.9,.98,3.08,2.51l4.22-1c-.23-2-2-5.4-7.33-5.4-4,0-7,2.77-7,6.12,0,2.62,1.63,4.79,5.24,5.58l2.47,.57c1.44,.3,2,1,2,1.82,0,1-.8,1.86-2.47,1.86-1.71,.18-3.24-1.07-3.41-2.77,0-.03,0-.05,0-.08l-4.33,1c.23,2.13,2.17,5.77,7.79,5.77,4.9,0,7.26-3.12,7.26-6.15,0-2.77-1.9-5.01-5.56-5.77l.03,.04Zm165.53-4.6v-2.81h-4.9v18.69h5v-8.55c0-4,2.24-5.28,4.83-5.28,.51,0,1.02,.05,1.52,.15v-5.09c-.39-.05-.79-.07-1.18-.08-1.58,.03-4.17,.46-5.3,2.93l.03,.04Zm18.28-3.34c-5.28-.13-9.67,4.05-9.8,9.33,0,.2,0,.39,0,.59,0,5.41,4.39,9.8,9.8,9.8s9.8-4.39,9.8-9.8c.22-5.28-3.89-9.74-9.17-9.96-.22,0-.44-.01-.66,0l.03,.04Zm0,15.24c-2.47,0-4.75-1.82-4.75-5.32s2.28-5.32,4.75-5.32,4.75,1.79,4.75,5.32-2.31,5.27-4.78,5.27l.03,.05Zm-171.72-23.98c-1.72,.1-3.04,1.57-2.94,3.29,.09,1.58,1.35,2.85,2.94,2.94,1.72-.1,3.04-1.57,2.94-3.29-.09-1.58-1.35-2.85-2.94-2.94Zm198.9,21.31c-1.91,.02-3.44,1.59-3.42,3.5,.02,1.91,1.59,3.44,3.5,3.42,1.9-.02,3.42-1.56,3.42-3.46,0-1.92-1.56-3.47-3.48-3.46h-.02Zm-76.3-12.54c-2.17-.07-4.21,.99-5.4,2.81v-2.31h-4.9v18.69h5.05v-10.75c0-2.17,1.29-3.88,3.5-3.88,2.43,0,3.46,1.63,3.46,3.72v10.9h5.05v-11.81c0-4.06-2.13-7.37-6.77-7.37h.01Zm62.89,19.19h5.05v-27.51h-5.05v27.51Zm-44.77-24.28h-4.56v2.62c.18,1.48-.88,2.81-2.35,2.99-.18,.02-.36,.02-.54,.01h-.95v4.48h3.38v8.7c0,3.61,2.28,5.78,5.93,5.78,.97,.03,1.94-.12,2.85-.46v-4.21c-.51,.11-1.04,.16-1.56,.15-1.44,0-2.2-.53-2.2-2.17v-7.82h3.76v-4.48h-3.76v-5.59Zm-124.38,5c-5.28-.13-9.67,4.05-9.8,9.33,0,.2,0,.39,0,.59,0,5.41,4.39,9.8,9.8,9.8s9.8-4.39,9.8-9.8c.18-5.28-3.95-9.71-9.23-9.9-.19,0-.38,0-.57,0v-.02Zm0,15.24c-2.47,0-4.75-1.82-4.75-5.32s2.28-5.32,4.75-5.32,4.75,1.79,4.75,5.32-2.28,5.33-4.75,5.33h0Zm24.1-15.16c-2.17-.07-4.21,.99-5.4,2.81v-2.31h-4.9v18.69h5.05v-10.75c0-2.17,1.29-3.88,3.5-3.88,2.43,0,3.46,1.63,3.46,3.72v10.9h5.05v-11.81c0-4.06-2.13-7.37-6.76-7.37ZM164.5,8.26c-4.79,0-9.19,3.88-9.19,9.84,0,6.31,4.52,10,9.65,10,4.6,0,7.56-2.7,8.51-5.93l-4.22-1.25c-.59,1.81-2.35,2.99-4.25,2.84-2.47,.09-4.55-1.8-4.71-4.26h13.37c0-.08,.08-.84,.08-1.56,0-6-3.46-9.68-9.24-9.68Zm-4.1,7.79c.17-2.16,2.02-3.79,4.18-3.69,2.89,0,4.1,1.82,4.18,3.69h-8.36Zm70.07,5.74l-4.47-1.49c-.52,1.92-2.3,3.22-4.29,3.15-2.58,0-4.79-1.9-4.79-5.28s2.17-5.24,4.75-5.24c1.96-.08,3.7,1.24,4.14,3.15l4.52-1.52c-.8-3.15-3.69-6.31-8.78-6.31-5.29-.05-9.61,4.19-9.67,9.47,0,.16,0,.32,0,.48-.14,5.34,4.08,9.78,9.42,9.92,.14,0,.28,0,.42,0,4.03,.18,7.66-2.45,8.74-6.34h0Zm11.29,38.69c-4.33,0-8.36-3.15-8.36-8.89,0-6.12,4.25-9,8.28-9,4.67,0,6.76,2.85,7.41,5.43l4.91-1.57c-1.06-4.37-4.9-8.93-12.35-8.93-7.51-.03-13.63,6.03-13.66,13.54,0,.17,0,.35,0,.52,0,8.59,6.27,14,13.79,14s11.44-5,12.46-9.16l-4.9-1.48c-.92,3.4-4.08,5.7-7.6,5.53h0Zm24.24-14.7c-5.28-.13-9.67,4.05-9.8,9.33,0,.2,0,.39,0,.59,0,5.41,4.39,9.8,9.8,9.8s9.8-4.39,9.8-9.8c.19-5.28-3.93-9.72-9.21-9.92-.2,0-.39,0-.59,0Zm0,15.24c-2.47,0-4.75-1.82-4.75-5.32s2.28-5.32,4.75-5.32,4.75,1.79,4.75,5.32-2.32,5.31-4.75,5.31h0Z"/></g><g id="e"><polygon class="g" points="60.98 4.68 60.99 4.68 62.54 8.46 62.96 8.46 64.51 4.68 64.53 4.68 64.53 8.46 65.15 8.46 65.15 3.86 64.22 3.86 62.77 7.34 62.75 7.34 61.28 3.86 60.35 3.86 60.35 8.46 60.98 8.46 60.98 4.68"/><polygon class="g" points="57.63 8.46 58.25 8.46 58.25 4.44 59.73 4.44 59.73 3.86 56.15 3.86 56.15 4.44 57.63 4.44 57.63 8.46"/><polygon class="f" points="371.92 44.23 371.9 44.23 370.43 40.75 369.5 40.75 369.5 45.35 370.13 45.35 370.13 41.57 370.14 41.57 371.69 45.35 372.11 45.35 373.67 41.57 373.68 41.57 373.68 45.35 374.3 45.35 374.3 40.75 373.37 40.75 371.92 44.23"/><polygon class="f" points="367.4 45.35 367.4 41.33 368.88 41.33 368.88 40.75 365.3 40.75 365.3 41.33 366.78 41.33 366.78 45.35 367.4 45.35"/></g></g></g></svg>