<?xml version="1.0" encoding="UTF-8"?><svg xmlns="http://www.w3.org/2000/svg" viewBox="0 0 358.84 72.79"><defs><style>.f{fill:#205c40;}.g{fill:#1b365d;}</style></defs><g id="a"/><g id="b"><g id="c"><g id="d"><path class="f" d="M23.27,25.8c-2.88,1.66-4.65,4.74-4.65,8.06v24.23c0,.86,.69,1.55,1.55,1.55,.27,0,.54-.07,.78-.21l9.31-5.37c1.43-.82,2.32-2.35,2.33-4v-8.09c0-3.33,1.78-6.4,4.66-8.06l27.92-16.11-9.32-5.4c-2.88-1.66-6.43-1.66-9.31,0l-23.27,13.4Z"/><path class="f" d="M64.05,24.36c-.41-.12-.86-.07-1.23,.15l-9.31,5.37c-1.43,.82-2.32,2.35-2.33,4v8.06c0,3.33-1.78,6.4-4.66,8.06l-27.92,16.16,9.31,5.38c2.88,1.66,6.43,1.66,9.31,0l23.28-13.45c2.88-1.66,4.65-4.74,4.65-8.06V25.8c-.02-.67-.46-1.25-1.1-1.44Z"/><path class="f" d="M46.54,7.03L37.23,1.65C34.35-.01,30.8-.01,27.92,1.65L4.64,15.09C1.77,16.76,0,19.83,0,23.15H0v26.88c0,3.33,1.77,6.4,4.65,8.06l9.35,5.38V31.21c0-3.33,1.78-6.4,4.66-8.06L46.54,7.03Z"/><path class="g" d="M157.7,46.23c-2.17-.07-4.21,.99-5.4,2.81v-2.32h-4.9v18.69h5.05v-10.75c0-2.17,1.29-3.88,3.5-3.88,2.43,0,3.46,1.63,3.46,3.72v10.9h5.05v-11.77c0-4.1-2.13-7.4-6.76-7.4Zm7.41-37h-5.05v10.86c.19,1.85-1.16,3.51-3.01,3.7-.18,.02-.36,.02-.53,.01-2.36,0-3.42-1.67-3.42-3.76V9.22h-5.1v11.82c0,4.07,2.58,7.37,7.1,7.37,2.04,.11,4-.84,5.17-2.51,0,.67,.05,1.34,.15,2h4.83c-.13-1.12-.19-2.25-.19-3.38l.05-15.29Zm23,52.13c-2.58,0-4.79-1.9-4.79-5.28s2.16-5.28,4.74-5.28c1.96-.08,3.7,1.24,4.14,3.15l4.52-1.52c-.8-3.15-3.69-6.31-8.78-6.31-5.28-.07-9.63,4.16-9.7,9.44,0,.16,0,.32,0,.48-.14,5.34,4.08,9.78,9.42,9.92,.14,0,.28,0,.42,0,4.02,.18,7.64-2.43,8.74-6.31l-4.45-1.48c-.51,1.93-2.29,3.25-4.28,3.18h0Zm-6.76-47.1v-5.11c-.39-.05-.79-.07-1.18-.08-1.6,0-4.18,.46-5.32,2.93v-2.77h-4.9V27.91h5.05v-8.55c0-4,2.24-5.28,4.83-5.28,.5,0,1.01,.05,1.5,.15l.02,.02Zm-9.61,23.21c-1.72,.1-3.04,1.57-2.94,3.29,.09,1.58,1.35,2.85,2.94,2.94,1.72-.1,3.04-1.57,2.94-3.29-.09-1.58-1.35-2.85-2.94-2.94Zm-2.51,28h5.05v-18.74h-5.05v18.74Zm15.69-37.5h5.08V9.22h-5.05l-.03,18.74Zm-70.41,.57c4.6,0,7.56-2.7,8.51-5.93l-4.22-1.25c-.59,1.82-2.35,3-4.26,2.85-2.47,.09-4.55-1.8-4.71-4.26h13.37c0-.08,.08-.84,.08-1.56,0-6-3.46-9.69-9.23-9.69-4.79,0-9.19,3.88-9.19,9.84-.02,6.27,4.5,9.95,9.63,9.95l.02,.05Zm-.4-15.73c2.89,0,4.1,1.82,4.18,3.69h-8.36c.17-2.16,2.02-3.79,4.18-3.69Zm21.77,33.43c-2.37-.13-4.63,1.05-5.88,3.07-1.06-2.06-3.24-3.28-5.55-3.12-2.18-.05-4.24,1-5.47,2.81v-2.27h-4.83v18.69h5.05v-10.94c-.15-1.88,1.26-3.53,3.14-3.68,.12,0,.24-.01,.36,0,2.28,0,3.31,1.52,3.31,3.53v11.1h5v-10.94c-.13-1.89,1.29-3.53,3.18-3.66,.08,0,.17,0,.25,0,2.32,0,3.31,1.52,3.31,3.53v11.08h4.9v-12.12c0-5.01-3.31-7.1-6.76-7.1v.04ZM187.41,6.23c1.72-.1,3.04-1.57,2.94-3.29-.09-1.58-1.35-2.85-2.94-2.94-1.72,.1-3.04,1.57-2.94,3.29,.09,1.58,1.35,2.85,2.94,2.94ZM92.64,23.8c-3.8,0-5.64-2.38-5.89-5l-4.86,1.29c.42,3.84,3.57,8.43,10.71,8.43,6.27,0,9.73-4.18,9.73-8.32,0-3.8-2.62-7-7.52-7.94l-3.81-.76c-2-.38-2.93-1.56-2.93-3,0-1.79,1.67-3.42,4.22-3.42,2.37-.19,4.49,1.46,4.9,3.8l4.81-1.48c-.61-3-3.12-7-9.65-7-5.09,0-9.38,3.65-9.38,8.43,0,4.07,2.77,6.84,7.07,7.71l3.76,.76c2.09,.42,3.27,1.63,3.27,3.19-.07,1.91-1.62,3.31-4.43,3.31Zm3.42,14.1c-7.49-.15-13.69,5.81-13.84,13.3,0,.25,0,.51,0,.76,0,7.65,6.2,13.85,13.85,13.85s13.85-6.2,13.85-13.85c.27-7.5-5.59-13.79-13.09-14.05-.26,0-.52-.01-.78,0Zm0,23c-4.14,0-8.4-2.89-8.4-9s4.26-9,8.4-9,8.44,2.89,8.44,9-4.26,8.99-8.44,8.99h0Zm40-36.99c-2.58,0-4.79-1.9-4.79-5.28s2.17-5.24,4.75-5.24c1.96-.08,3.7,1.24,4.14,3.15l4.52-1.52c-.8-3.15-3.69-6.31-8.78-6.31-5.28-.07-9.63,4.16-9.7,9.44,0,.16,0,.32,0,.48-.14,5.34,4.08,9.78,9.42,9.92,.14,0,.28,0,.42,0,4.02,.18,7.64-2.43,8.74-6.31l-4.45-1.48c-.56,1.87-2.31,3.12-4.26,3.05l-.02,.1Zm164.36-15.17c-2.17-.07-4.21,.99-5.4,2.81v-2.32h-4.9V27.91h5.05v-10.75c0-2.17,1.29-3.88,3.5-3.88,2.43,0,3.46,1.63,3.46,3.72v10.9h5.05v-11.77c.01-4.1-2.12-7.4-6.76-7.4Zm-23.52-.08c-4.79,0-9.19,3.88-9.19,9.84,0,6.31,4.52,10,9.65,10,4.6,0,7.56-2.7,8.51-5.93l-4.22-1.25c-.59,1.82-2.34,3-4.25,2.85-2.47,.09-4.55-1.8-4.71-4.26h13.37c0-.08,.08-.84,.08-1.56,0-6.01-3.46-9.69-9.24-9.69h0Zm-4.1,7.79c.19-2.15,2.05-3.76,4.2-3.64,2.89,0,4.1,1.82,4.18,3.69l-8.38-.05Zm-19.5,6.91c-4.33,0-8.36-3.15-8.36-8.89,0-6.12,4.25-9,8.28-9,4.67,0,6.76,2.85,7.41,5.43l4.94-1.56c-1.06-4.37-4.9-8.93-12.35-8.93-7.51-.07-13.66,5.96-13.73,13.47,0,.2,0,.39,0,.59,0,8.59,6.27,14,13.79,14s11.44-5,12.46-9.16l-4.88-1.5c-.91,3.4-4.06,5.71-7.57,5.55h0Zm-48,4.37v-4.18c-.51,.11-1.04,.16-1.56,.15-1.44,0-2.2-.53-2.2-2.17v-7.82h3.76v-4.48h-3.76V3.63h-4.54v2.62c.18,1.48-.88,2.81-2.35,2.99-.18,.02-.36,.02-.54,.01h-.95v4.45h3.38v8.7c0,3.61,2.28,5.78,5.93,5.78,.98,.04,1.96-.12,2.88-.46h-.05ZM334.21,8.65c-4.79,0-9.19,3.88-9.19,9.84,0,6.31,4.52,10,9.65,10,4.6,0,7.56-2.7,8.51-5.93l-4.18-1.26c-.59,1.82-2.34,3-4.25,2.85-2.48,.11-4.59-1.78-4.75-4.25h13.37c0-.08,.08-.84,.08-1.56,0-6.01-3.45-9.69-9.24-9.69Zm-4.1,7.79c.19-2.13,2.03-3.74,4.17-3.64,2.89,0,4.1,1.82,4.18,3.69l-8.35-.05Zm-11.55-12.8h-4.56v2.62c.18,1.48-.88,2.81-2.35,2.99-.18,.02-.36,.02-.54,.01h-.95v4.44h3.38v8.7c0,3.61,2.28,5.78,5.93,5.78,.97,.03,1.94-.12,2.85-.46v-4.18c-.51,.11-1.04,.16-1.56,.15-1.44,0-2.2-.53-2.2-2.17v-7.82h3.76v-4.48h-3.76V3.64Zm39.1,5.43c-1.6,0-4.18,.46-5.32,2.93v-2.78h-4.9V27.91h5.05v-8.55c0-4,2.24-5.28,4.83-5.28,.51,0,1.02,.05,1.52,.15v-5.09c-.4-.04-.79-.07-1.19-.07h.01ZM215.87,53.25c0-3.76-2.2-7.1-8.13-7.1-5,0-7.71,3.23-8,6.16l4.48,.95c.17-1.81,1.76-3.14,3.57-3,2.13,0,3.15,1.1,3.15,2.43,0,.65-.34,1.18-1.41,1.33l-4.6,.68c-3.12,.46-5.58,2.32-5.58,5.66,0,2.93,2.43,5.62,6.42,5.62,2.2,.11,4.29-.94,5.51-2.77,0,.75,.06,1.5,.19,2.24h4.64c-.15-.99-.23-2-.23-3v-9.2Zm-4.95,4.6c0,3.31-2,4.33-4.1,4.33-1.2,.13-2.28-.73-2.42-1.94,0-.08-.01-.16-.01-.23,0-1.29,1.03-2.34,2.32-2.36l4.22-.65v.85Zm17.93-3.76l-2.66-.57c-1-.19-1.71-.76-1.71-1.67,.15-1.17,1.22-2,2.39-1.86,1.54-.15,2.93,.96,3.11,2.5l4.22-1c-.23-2-2-5.4-7.33-5.4-4,0-7,2.77-7,6.12,0,2.62,1.63,4.79,5.24,5.58l2.47,.57c1.44,.3,2,1,2,1.82,0,1-.8,1.86-2.47,1.86-1.71,.18-3.24-1.07-3.41-2.77,0-.03,0-.05,0-.08l-4.33,1c.23,2.13,2.17,5.77,7.79,5.77,4.9,0,7.26-3.12,7.26-6.15,0-2.72-1.87-5.01-5.56-5.72Zm-6-44.87l-4.6,10.94-5-10.94h-5.66l7.94,16.34-4.41,9.73h5.36l11.74-26.06h-5.37Zm33,49.53c-1.91,.02-3.44,1.59-3.42,3.5,.02,1.91,1.59,3.44,3.5,3.42,1.9-.02,3.42-1.56,3.42-3.46-.03-1.92-1.6-3.45-3.52-3.42h0l.02-.04Zm-11.15-17.63h-4.56v2.67c.18,1.48-.88,2.81-2.35,2.99-.18,.02-.36,.02-.54,.01h-.95v4.4h3.38v8.7c0,3.61,2.28,5.78,5.93,5.78,.97,.03,1.94-.12,2.85-.46v-4.18c-.51,.11-1.04,.16-1.56,.15-1.44,0-2.2-.53-2.2-2.17v-7.82h3.76v-4.48h-3.76v-5.59Z"/></g><g id="e"><polygon class="f" points="60.98 5.28 60.99 5.28 62.54 9.06 62.96 9.06 64.51 5.28 64.53 5.28 64.53 9.06 65.15 9.06 65.15 4.46 64.22 4.46 62.77 7.94 62.75 7.94 61.28 4.46 60.35 4.46 60.35 9.06 60.98 9.06 60.98 5.28"/><polygon class="f" points="57.63 9.06 58.25 9.06 58.25 5.04 59.73 5.04 59.73 4.46 56.15 4.46 56.15 5.04 57.63 5.04 57.63 9.06"/><polygon class="g" points="261.37 44.61 261.35 44.61 259.89 41.13 258.95 41.13 258.95 45.74 259.58 45.74 259.58 41.95 259.59 41.95 261.15 45.74 261.56 45.74 263.12 41.95 263.13 41.95 263.13 45.74 263.76 45.74 263.76 41.13 262.82 41.13 261.37 44.61"/><polygon class="g" points="256.86 45.74 256.86 41.72 258.34 41.72 258.34 41.13 254.75 41.13 254.75 41.72 256.23 41.72 256.23 45.74 256.86 45.74"/></g></g></g></svg>