<?xml version="1.0" encoding="utf-8"?>
<!-- Generator: Adobe Illustrator 28.2.0, SVG Export Plug-In . SVG Version: 6.00 Build 0)  -->
<svg version="1.1" id="Logo" xmlns="http://www.w3.org/2000/svg" xmlns:xlink="http://www.w3.org/1999/xlink" x="0px" y="0px"
	 viewBox="0 0 404.1 90" style="enable-background:new 0 0 404.1 90;" xml:space="preserve">
<path id="Logo-2" d="M30.1,34.4c-2.9,1.7-4.6,4.7-4.6,8v24c0,0.8,0.7,1.5,1.5,1.5c0.3,0,0.5-0.1,0.8-0.2l9.3-5.3
	c1.4-0.8,2.3-2.3,2.3-4v-8c0-3.3,1.8-6.4,4.6-8l27.8-16L62.6,21c-2.9-1.6-6.4-1.6-9.3,0L30.1,34.4L30.1,34.4z M70.7,32.9
	c-0.4-0.1-0.8-0.1-1.2,0.2l-9.3,5.3c-1.4,0.8-2.3,2.3-2.3,4v8c0,3.3-1.8,6.4-4.6,8L25.5,74.5l9.3,5.3c2.9,1.7,6.4,1.7,9.3,0
	l23.2-13.4c2.9-1.7,4.6-4.7,4.6-8v-24C71.8,33.7,71.3,33.1,70.7,32.9C70.7,32.9,70.7,32.9,70.7,32.9z M25.5,31.7l27.8-16L44,10.3
	c-2.9-1.6-6.4-1.6-9.3,0L11.6,23.7c-2.9,1.7-4.6,4.7-4.6,8l0,0v26.7c0,3.3,1.8,6.4,4.6,8l9.3,5.3V39.7
	C20.9,36.4,22.6,33.4,25.5,31.7L25.5,31.7L25.5,31.7z M67.1,17.3h-0.9v-0.4h2.2v0.4h-0.9v2.5h-0.4L67.1,17.3L67.1,17.3z M69.2,19.8
	h-0.4v-2.9h0.6l0.9,2.2h0l0.9-2.2h0.6v2.9h-0.4v-2.4l0,0l-1,2.4h-0.3l-1-2.4l0,0L69.2,19.8L69.2,19.8z M101.9,17.4
	c-0.3-1.5-1.5-3.8-4.9-3.8c-2.6,0-4.2,1.6-4.2,3.4c0,1.5,0.9,2.7,2.9,3l3.8,0.7c4.9,1,7.5,4.1,7.5,7.9c0,4.1-3.5,8.3-9.7,8.3
	c-7.1,0-10.3-4.6-10.7-8.4l4.9-1.3c0.2,2.7,2.1,5,5.9,5c2.8,0,4.4-1.4,4.4-3.3c0-1.6-1.2-2.8-3.3-3.2l-3.8-0.8
	c-4.3-0.9-7.1-3.6-7.1-7.7c0-4.8,4.3-8.4,9.4-8.4c6.5,0,9,3.9,9.7,7L101.9,17.4L101.9,17.4z M127.7,31.1c-0.9,3.2-3.9,5.9-8.5,5.9
	c-5.1,0-9.7-3.7-9.7-10c0-6,4.4-9.8,9.2-9.8c5.8,0,9.2,3.7,9.2,9.7c0,0.7-0.1,1.5-0.1,1.6h-13.4c0.1,2.5,2.2,4.3,4.7,4.3
	c2.4,0,3.7-1.2,4.2-2.9L127.7,31.1L127.7,31.1z M123,25c-0.1-1.9-1.3-3.7-4.2-3.7c-2.6,0-4.1,2-4.2,3.7H123z M135.8,27.1
	c0,3.4,2.2,5.3,4.8,5.3s3.9-1.7,4.3-3.1l4.4,1.5c-0.8,3.1-3.8,6.3-8.7,6.3c-5.5,0-9.8-4.2-9.8-9.9s4.2-9.9,9.7-9.9
	c5.1,0,8,3.1,8.8,6.3l-4.5,1.5c-0.5-1.6-1.6-3.1-4.1-3.1S135.8,23.7,135.8,27.1L135.8,27.1z M164.9,34.4c-1,1.8-3.2,2.5-5.2,2.5
	c-4.5,0-7.1-3.3-7.1-7.4V17.8h5.1v10.8c0,2.1,1.1,3.8,3.4,3.8s3.5-1.5,3.5-3.7V17.7h5.1V33c0,1.4,0.1,2.7,0.2,3.4H165
	C165,36,164.9,35.2,164.9,34.4L164.9,34.4z M186.6,22.8c-0.6-0.1-1.1-0.1-1.5-0.1c-2.6,0-4.8,1.2-4.8,5.3v8.5h-5.1V17.8h4.9v2.8
	c1.1-2.5,3.7-2.9,5.3-2.9c0.4,0,0.8,0,1.2,0.1L186.6,22.8L186.6,22.8z M192.8,8.5c1.8,0,3.1,1.4,3.1,3.1s-1.4,3.1-3.1,3.1
	s-3.1-1.4-3.1-3.1S191.1,8.5,192.8,8.5z M190.3,36.4V17.7h5.1v18.7H190.3z M207.1,17.8h3.8v4.5h-3.8v7.8c0,1.6,0.8,2.2,2.2,2.2
	c0.6,0,1.3-0.1,1.6-0.2v4.2c-0.5,0.2-1.4,0.5-2.9,0.5c-3.6,0-5.9-2.2-5.9-5.8v-8.7h-3.4v-4.5h0.9c2,0,2.9-1.3,2.9-3v-2.6h4.6
	L207.1,17.8L207.1,17.8z M216.8,43.8l4.4-9.7l-7.9-16.3h5.7l5,10.9l4.6-10.9h5.4l-11.7,26.1L216.8,43.8L216.8,43.8z M245.4,23
	c0-8.6,6.5-14.1,13.7-14.1s11.3,4.6,12.4,8.9l-4.9,1.6c-0.6-2.6-2.7-5.4-7.4-5.4c-4,0-8.3,2.9-8.3,9c0,5.7,4,8.9,8.4,8.9
	c4.6,0,6.8-3,7.6-5.5l4.9,1.5c-1,4.1-4.9,9.2-12.5,9.2S245.4,31.6,245.4,23L245.4,23z M291.8,31.1c-1,3.2-3.9,5.9-8.5,5.9
	c-5.1,0-9.6-3.7-9.6-10c0-6,4.4-9.8,9.2-9.8c5.8,0,9.2,3.7,9.2,9.7c0,0.7-0.1,1.5-0.1,1.6h-13.4c0.1,2.5,2.2,4.3,4.7,4.3
	c2.4,0,3.6-1.2,4.2-2.9L291.8,31.1L291.8,31.1z M287.1,25c-0.1-1.9-1.3-3.7-4.2-3.7c-2.6,0-4.1,2-4.2,3.7H287.1z M301.2,36.4h-5
	V17.7h4.9v2.3c1.1-1.9,3.4-2.8,5.4-2.8c4.6,0,6.8,3.3,6.8,7.4v11.8h-5V25.5c0-2.1-1-3.7-3.5-3.7c-2.2,0-3.5,1.7-3.5,3.9L301.2,36.4
	L301.2,36.4z M324.7,17.8h3.8v4.5h-3.8v7.8c0,1.6,0.8,2.2,2.2,2.2c0.6,0,1.3-0.1,1.6-0.2v4.2c-0.5,0.2-1.4,0.5-2.9,0.5
	c-3.6,0-5.9-2.2-5.9-5.8v-8.7h-3.4v-4.5h1c2,0,2.9-1.3,2.9-3v-2.6h4.6L324.7,17.8L324.7,17.8z M349.5,31.1c-1,3.2-3.9,5.9-8.5,5.9
	c-5.1,0-9.6-3.7-9.6-10c0-6,4.4-9.8,9.2-9.8c5.8,0,9.2,3.7,9.2,9.7c0,0.7-0.1,1.5-0.1,1.6h-13.4c0.1,2.5,2.2,4.3,4.7,4.3
	c2.4,0,3.6-1.2,4.2-2.9L349.5,31.1L349.5,31.1z M344.8,25c-0.1-1.9-1.3-3.7-4.2-3.7c-2.6,0-4.1,2-4.2,3.7H344.8z M365.2,22.8
	c-0.6-0.1-1.1-0.1-1.5-0.1c-2.6,0-4.8,1.2-4.8,5.3v8.5h-5V17.8h4.9v2.8c1.1-2.5,3.7-2.9,5.3-2.9c0.4,0,0.8,0,1.2,0.1L365.2,22.8
	L365.2,22.8z M101.9,54.9c-0.3-1.5-1.5-3.8-4.9-3.8c-2.6,0-4.2,1.6-4.2,3.4c0,1.5,0.9,2.7,2.9,3l3.8,0.7c4.9,1,7.5,4.1,7.5,7.9
	c0,4.1-3.5,8.3-9.7,8.3c-7.1,0-10.3-4.6-10.7-8.4l4.9-1.3c0.2,2.7,2.1,5.1,5.9,5.1c2.8,0,4.4-1.4,4.4-3.3c0-1.6-1.2-2.8-3.3-3.2
	l-3.8-0.8c-4.3-0.9-7.1-3.7-7.1-7.7c0-4.8,4.3-8.4,9.4-8.4c6.5,0,9,4,9.7,7L101.9,54.9L101.9,54.9z M115.5,63.2l4.6-0.7
	c1.1-0.2,1.4-0.7,1.4-1.3c0-1.3-1-2.4-3.2-2.4s-3.4,1.4-3.6,3l-4.5-1c0.3-2.9,3-6.2,8-6.2c5.9,0,8.1,3.3,8.1,7.1V71
	c0,1,0.1,2.3,0.2,3h-4.6c-0.1-0.5-0.2-1.5-0.2-2.2c-0.9,1.5-2.7,2.8-5.5,2.8c-4,0-6.4-2.7-6.4-5.6C109.9,65.5,112.4,63.6,115.5,63.2
	L115.5,63.2z M121.5,66.4v-0.8l-4.2,0.7c-1.3,0.2-2.3,0.9-2.3,2.4c0,1.1,0.8,2.2,2.4,2.2C119.5,70.7,121.5,69.7,121.5,66.4
	L121.5,66.4z M136,63.2l4.6-0.7c1.1-0.2,1.4-0.7,1.4-1.3c0-1.3-1-2.4-3.1-2.4s-3.4,1.4-3.6,3l-4.5-1c0.3-2.9,3-6.2,8-6.2
	c5.9,0,8.1,3.3,8.1,7.1V71c0,1,0.1,2.3,0.2,3h-4.6c-0.1-0.5-0.2-1.5-0.2-2.2c-0.9,1.5-2.7,2.8-5.5,2.8c-4,0-6.4-2.7-6.4-5.6
	C130.4,65.5,132.9,63.6,136,63.2L136,63.2z M142,66.4v-0.8l-4.2,0.7c-1.3,0.2-2.3,0.9-2.3,2.4c0,1.1,0.8,2.2,2.4,2.2
	C140,70.7,142,69.7,142,66.4L142,66.4z M165.9,54.9c-0.3-1.5-1.5-3.8-4.9-3.8c-2.6,0-4.2,1.6-4.2,3.4c0,1.5,0.9,2.7,2.9,3l3.8,0.7
	c4.9,1,7.5,4.1,7.5,7.9c0,4.1-3.5,8.3-9.7,8.3c-7.1,0-10.3-4.6-10.7-8.4l4.9-1.3c0.2,2.7,2.1,5.1,5.9,5.1c2.8,0,4.4-1.4,4.4-3.3
	c0-1.6-1.2-2.8-3.3-3.2l-3.8-0.8c-4.3-0.9-7.1-3.7-7.1-7.7c0-4.8,4.3-8.4,9.4-8.4c6.5,0,9,4,9.6,7L165.9,54.9L165.9,54.9z"/>
</svg>
