<?xml version="1.0" encoding="UTF-8"?><svg xmlns="http://www.w3.org/2000/svg" viewBox="0 0 366.01 72.44"><defs><style>.f{fill:#1b365d;}</style></defs><g id="a"/><g id="b"><g id="c"><g id="d"><path class="f" d="M136.08,60.95c-2.58,0-4.79-1.9-4.79-5.28s2.17-5.24,4.75-5.24c1.96-.08,3.7,1.24,4.14,3.15l4.52-1.52c-.8-3.15-3.69-6.31-8.78-6.31-5.28-.07-9.63,4.16-9.7,9.44,0,.16,0,.32,0,.48-.14,5.34,4.08,9.78,9.42,9.92,.14,0,.28,0,.42,0,4.02,.18,7.64-2.43,8.74-6.31l-4.45-1.48c-.52,1.92-2.3,3.22-4.28,3.15Zm-41.27-11.62l-3.81-.72c-2-.38-2.93-1.56-2.93-3,0-1.79,1.67-3.42,4.22-3.42,2.37-.19,4.49,1.46,4.9,3.8l4.81-1.49c-.61-3-3.12-7-9.65-7-5.09,0-9.38,3.65-9.38,8.43,0,4.07,2.77,6.84,7.07,7.71l3.76,.76c2.09,.42,3.27,1.63,3.27,3.19,0,1.9-1.56,3.31-4.37,3.31-3.8,0-5.66-2.39-5.89-5.05l-4.92,1.35c.42,3.84,3.57,8.43,10.71,8.43,6.27,0,9.73-4.18,9.73-8.32,0-3.84-2.62-7.03-7.52-7.98Zm13.41-35.83h-13.45v4.56h8.51c-.3,1.9-2.24,5.24-7.22,5.24-4.52,0-8.51-3.15-8.51-9.23,0-6.38,4.41-9.16,8.47-9.16,3.34-.18,6.36,1.96,7.29,5.17l5-1.79C107,4.2,103.09,0,96,0s-13.79,5.36-13.79,14.06,6.19,14,13.45,14c4.07,0,6.73-1.82,7.94-3.65l.34,3.08h4.26l.02-14Zm-61.68-1.49l-23.27,13.44c-2.88,1.66-4.65,4.74-4.65,8.06v24.19c0,.86,.69,1.55,1.55,1.55,.27,0,.54-.07,.78-.21l9.31-5.37c1.43-.82,2.32-2.35,2.33-4v-8.1c0-3.33,1.78-6.4,4.66-8.06l27.92-16.13-9.31-5.38c-2.88-1.66-6.44-1.66-9.32,.01ZM114,45.76c-4.79,0-9.19,3.88-9.19,9.84,0,6.31,4.52,10,9.65,10,4.6,0,7.56-2.7,8.51-5.93l-4.22-1.25c-.59,1.82-2.35,3-4.26,2.85-2.47,.09-4.55-1.8-4.71-4.26h13.37c0-.08,.08-.84,.08-1.56,.04-6.01-3.42-9.69-9.23-9.69Zm-4.1,7.79c.17-2.16,2.02-3.79,4.18-3.69,2.89,0,4.1,1.82,4.18,3.69h-8.36Zm11.82-25.46c4.6,0,7.56-2.7,8.51-5.93l-4.23-1.25c-.59,1.82-2.35,3-4.26,2.85-2.47,.09-4.55-1.8-4.71-4.26h13.37c0-.08,.08-.84,.08-1.56,0-6-3.46-9.69-9.23-9.69-4.79,0-9.19,3.88-9.19,9.84,.04,6.31,4.56,10,9.69,10h-.03Zm-.38-15.73c2.89,0,4.1,1.82,4.18,3.69h-8.36c.17-2.17,2.04-3.81,4.21-3.69h-.03Zm43.66,15.73c4.6,0,7.56-2.7,8.51-5.93l-4.22-1.25c-.59,1.83-2.37,3.02-4.29,2.85-2.47,.09-4.55-1.8-4.71-4.26h13.37c0-.08,.08-.84,.08-1.56,0-6-3.46-9.69-9.23-9.69-4.79,0-9.19,3.88-9.19,9.84,0,6.31,4.51,10,9.68,10Zm-.38-15.73c2.89,0,4.1,1.82,4.18,3.69h-8.4c.17-2.16,2.02-3.79,4.18-3.69h.04Zm14.36,9.65c0,3.61,2.28,5.78,5.93,5.78,.97,.03,1.94-.12,2.85-.46v-4.13c-.51,.11-1.04,.16-1.56,.15-1.44,0-2.2-.53-2.2-2.17v-7.87h3.76v-4.48h-3.76V3.2h-4.6v2.62c.18,1.48-.88,2.81-2.35,2.99-.18,.02-.36,.02-.54,.01h-.95v4.48h3.38l.04,8.71Zm-27.36,5.51V15.74c0-4.1-2.13-7.41-6.76-7.41-2.17-.07-4.21,.99-5.4,2.81v-2.31h-4.9V27.52h5.05v-10.75c0-2.17,1.29-3.88,3.5-3.88,2.43,0,3.46,1.63,3.46,3.72v10.9h5.05ZM18.62,22.76L46.54,6.63,37.23,1.25c-2.88-1.66-6.43-1.66-9.31,0L4.64,14.7C1.77,16.36,0,19.44,0,22.76H0v26.88c0,3.33,1.77,6.4,4.65,8.06l9.35,5.38V30.82c-.01-3.32,1.75-6.39,4.61-8.06h0Zm45.44,1.2c-.41-.12-.86-.07-1.23,.15l-9.31,5.37c-1.43,.82-2.32,2.35-2.33,4v8.06c0,3.33-1.78,6.4-4.66,8.06l-27.93,16.17,9.31,5.38c2.88,1.66,6.43,1.66,9.31,0l23.28-13.45c2.88-1.66,4.65-4.74,4.65-8.06V25.45c0-.69-.44-1.29-1.1-1.49h0ZM253.3,60.46c-4.33,0-8.36-3.15-8.36-8.89,0-6.12,4.25-9,8.28-9,4.67,0,6.76,2.85,7.41,5.43l4.94-1.56c-1.06-4.37-4.9-8.93-12.35-8.93-7.51-.07-13.66,5.96-13.73,13.47,0,.2,0,.39,0,.59,0,8.59,6.27,14,13.79,14s11.44-5,12.46-9.16l-4.9-1.48c-.91,3.38-4.05,5.68-7.55,5.53Zm47.12-14.63c-2.17-.07-4.21,.99-5.4,2.81v-2.31h-4.9v18.69h5.05v-10.75c0-2.17,1.29-3.88,3.5-3.88,2.43,0,3.46,1.63,3.46,3.72v10.9h5.05v-11.81c.01-4.06-2.12-7.37-6.75-7.37h-.01Zm-23.52-.08c-4.79,0-9.19,3.88-9.19,9.84,0,6.31,4.52,10,9.65,10,4.6,0,7.56-2.7,8.51-5.93l-4.22-1.25c-.59,1.82-2.34,3-4.25,2.85-2.47,.09-4.55-1.8-4.71-4.26h13.37c0-.08,.08-.84,.08-1.56,0-6-3.46-9.68-9.24-9.68h0Zm-4.1,7.78c.17-2.16,2.03-3.8,4.2-3.68,2.89,0,4.1,1.82,4.18,3.69h-8.38Zm45.75-12.81h-4.55v2.62c.18,1.48-.88,2.81-2.35,2.99-.18,.02-.36,.02-.54,.01h-.95v4.48h3.38v8.7c0,3.61,2.28,5.78,5.93,5.78,.97,.03,1.94-.12,2.85-.46v-4.21c-.51,.11-1.04,.16-1.56,.15-1.44,0-2.2-.53-2.2-2.17v-7.82h3.76v-4.48h-3.76v-5.59Zm15.65,5c-4.79,0-9.19,3.88-9.19,9.84,0,6.31,4.52,10,9.65,10,4.6,0,7.56-2.7,8.51-5.93l-4.18-1.24c-.59,1.82-2.34,3-4.25,2.85-2.48,.11-4.59-1.78-4.75-4.26h13.37c0-.08,.08-.84,.08-1.56,0-6-3.45-9.68-9.24-9.68v-.02Zm-4.1,7.79c.17-2.16,2.02-3.79,4.18-3.69,2.89,0,4.1,1.82,4.18,3.69h-8.36Zm-165-7.22h-5.05v10.89c.18,1.85-1.18,3.5-3.03,3.68-.17,.02-.33,.02-.5,.01-2.36,0-3.42-1.67-3.42-3.76v-10.8h-5.11v11.81c0,4.07,2.58,7.37,7.1,7.37,2.04,.11,4-.84,5.17-2.51,0,.67,.05,1.34,.15,2h4.83c-.13-1.12-.19-2.25-.19-3.38l.05-15.31Zm187.22,2.79v-2.77h-4.9v18.69h5.05v-8.55c0-4,2.24-5.28,4.83-5.28,.51,0,1.02,.05,1.52,.15v-5.09c-.39-.05-.79-.07-1.18-.08-1.59,.03-4.18,.46-5.32,2.93Zm10.18,9.27c-1.91,.02-3.44,1.59-3.42,3.5,.02,1.91,1.59,3.44,3.5,3.42,1.9-.02,3.42-1.56,3.42-3.46,0-1.92-1.56-3.47-3.48-3.46h-.02ZM221.73,23.45c-2.58,0-4.79-1.9-4.79-5.28s2.17-5.24,4.75-5.24c1.96-.08,3.7,1.24,4.14,3.15l4.52-1.52c-.8-3.15-3.69-6.31-8.78-6.31-5.28-.06-9.62,4.17-9.69,9.45,0,.17,0,.33,0,.5-.14,5.34,4.08,9.78,9.42,9.92,.14,0,.28,0,.42,0,4.02,.18,7.64-2.43,8.74-6.31l-4.47-1.51c-.52,1.91-2.29,3.22-4.27,3.15Zm-36.82,41.57h5.09v-18.69h-5.05l-.04,18.69Zm-10.07-15.92v-2.77h-4.9v18.69h5.06v-8.55c0-4,2.24-5.28,4.83-5.28,.51,0,1.02,.05,1.52,.15v-5.09c-.39-.05-.79-.07-1.18-.08-1.61,.03-4.17,.46-5.33,2.93Zm12.58-12c-1.72,.1-3.04,1.57-2.94,3.29,.09,1.58,1.35,2.85,2.94,2.94,1.72-.1,3.04-1.57,2.94-3.29-.09-1.58-1.35-2.85-2.94-2.94Zm30.85,20.21l-5-10.94h-5.66l7.94,16.34-4.41,9.73h5.36l11.74-26.06h-5.39l-4.58,10.93Zm-13.83-36.4c-.59,1.82-2.34,3-4.25,2.85-2.47,.09-4.55-1.8-4.71-4.26h13.37c0-.08,.08-.84,.08-1.56,0-6-3.46-9.69-9.23-9.69-4.79,0-9.19,3.88-9.19,9.84,0,6.31,4.52,10,9.65,10,4.6,0,7.56-2.7,8.51-5.93l-4.23-1.25Zm-4.67-8.55c2.89,0,4.1,1.82,4.18,3.69h-8.36c.17-2.15,2.01-3.79,4.17-3.69h.01Zm1.82,28.38h-4.59v2.62c.18,1.48-.88,2.81-2.35,2.99-.18,.02-.36,.02-.54,.01h-.95v4.48h3.38v8.7c0,3.61,2.28,5.78,5.93,5.78,.97,.03,1.94-.12,2.85-.46v-4.21c-.51,.11-1.04,.16-1.56,.15-1.44,0-2.2-.53-2.2-2.17v-7.82h3.76v-4.48h-3.76l.03-5.59Z"/></g><g id="e"><polygon class="f" points="60.98 4.68 60.99 4.68 62.54 8.46 62.96 8.46 64.51 4.68 64.53 4.68 64.53 8.46 65.15 8.46 65.15 3.86 64.22 3.86 62.77 7.34 62.75 7.34 61.28 3.86 60.35 3.86 60.35 8.46 60.98 8.46 60.98 4.68"/><polygon class="f" points="57.63 8.46 58.25 8.46 58.25 4.44 59.73 4.44 59.73 3.86 56.15 3.86 56.15 4.44 57.63 4.44 57.63 8.46"/><polygon class="f" points="237.87 6.72 237.85 6.72 236.39 3.24 235.46 3.24 235.46 7.84 236.08 7.84 236.08 4.06 236.09 4.06 237.65 7.84 238.06 7.84 239.62 4.06 239.63 4.06 239.63 7.84 240.26 7.84 240.26 3.24 239.32 3.24 237.87 6.72"/><polygon class="f" points="233.36 7.84 233.36 3.83 234.84 3.83 234.84 3.24 231.25 3.24 231.25 3.83 232.73 3.83 232.73 7.84 233.36 7.84"/></g></g></g></svg>