<?xml version="1.0" encoding="UTF-8"?>
<svg id="Layer_1" xmlns="http://www.w3.org/2000/svg" version="1.1" viewBox="0 0 357.38 73.29">
  <!-- Generator: Adobe Illustrator 30.0.0, SVG Export Plug-In . SVG Version: 2.1.1 Build 123)  -->
  <defs>
    <style>
      .st0 {
        fill: #534588;
      }

      .st1 {
        fill: #1b365d;
      }
    </style>
  </defs>
  <g>
    <path class="st1" d="M135.88,24.37c-2.57,0-4.76-1.89-4.76-5.25s2.16-5.21,4.72-5.21c1.95-.08,3.67,1.24,4.12,3.13l4.49-1.51c-.8-3.13-3.66-6.27-8.73-6.27-5.25-.05-9.55,4.17-9.6,9.43v.45c-.14,5.31,4.05,9.72,9.36,9.86h.42c4,.18,7.6-2.42,8.69-6.27l-4.42-1.47c-.53,1.9-2.29,3.19-4.27,3.11h-.03,0ZM196.02,22.94c0,3.59,2.27,5.75,5.9,5.75.97.03,1.93-.12,2.83-.46v-4.12c-.51.1-1.03.15-1.55.15-1.43,0-2.19-.53-2.19-2.16v-7.82h3.74v-4.45h-3.74v-5.6h-4.53v2.6c.18,1.47-.87,2.8-2.34,2.97-.18.02-.36.02-.53,0h-.94v4.45h3.36v8.69ZM92.72,24.33c-3.78,0-5.63-2.38-5.86-5.02l-4.83,1.28c.42,3.82,3.55,8.38,10.65,8.38,6.23,0,9.67-4.16,9.67-8.27,0-3.78-2.6-6.96-7.48-7.89l-3.79-.72c-1.99-.38-2.91-1.55-2.91-2.98,0-1.78,1.66-3.4,4.2-3.4,2.36-.19,4.47,1.45,4.87,3.78l4.78-1.48c-.61-2.98-3.1-6.96-9.59-6.96-5.06,0-9.33,3.63-9.33,8.38,0,4.05,2.75,6.8,7.03,7.67l3.74.76c2.08.42,3.25,1.62,3.25,3.17-.07,1.91-1.6,3.31-4.4,3.31h0ZM184.46,28.41h5.07V9.82h-5.02l-.05,18.58h0ZM154.88,28.9c2.03.11,3.97-.83,5.14-2.5,0,.67.05,1.33.15,1.99h4.8c-.12-1.12-.19-2.24-.19-3.36v-15.2h-5.02v10.8c.18,1.84-1.17,3.48-3.01,3.66-.17.02-.33.02-.5,0-2.35,0-3.4-1.66-3.4-3.74v-10.73h-5.08v11.74c0,4.05,2.61,7.34,7.11,7.34h0ZM174.61,19.94c0-3.98,2.23-5.25,4.8-5.25.51,0,1.01.05,1.51.15v-5.1c-.39-.05-.78-.07-1.17-.08-1.59,0-4.16.46-5.29,2.91v-2.75h-4.87v18.58h5.03v-8.46h-.01ZM114.45,29.01c4.57,0,7.52-2.68,8.46-5.9l-4.2-1.24c-.58,1.81-2.34,2.99-4.24,2.83-2.45.09-4.52-1.78-4.68-4.23h13.29c0-.08.08-.84.08-1.55,0-5.97-3.44-9.63-9.18-9.63-4.76,0-9.14,3.86-9.14,9.78,0,6.23,4.48,9.89,9.58,9.89v.04h.03ZM114.08,13.37c2.87,0,4.08,1.81,4.16,3.67h-8.31c.14-2.16,1.99-3.81,4.15-3.71,0,0,0,.04,0,.04ZM186.97,6.84c1.71.1,3.18-1.21,3.27-2.92s-1.21-3.18-2.92-3.27h-.35c-1.71-.1-3.18,1.21-3.27,2.92-.1,1.71,1.21,3.18,2.92,3.27h.35ZM317.34,4.23h-4.52v2.6c.18,1.47-.87,2.8-2.34,2.97-.18.02-.36.02-.53,0h-.94v4.45h3.36v8.65c0,3.59,2.27,5.75,5.9,5.75.97.03,1.93-.12,2.83-.46v-4.1c-.51.1-1.03.15-1.55.15-1.43,0-2.19-.53-2.19-2.16v-7.82h3.74v-4.45h-3.74v-5.6l-.02.02ZM299.3,9.29c-2.15-.07-4.19.99-5.37,2.79v-2.26h-4.87v18.58h5.02v-10.69c0-2.16,1.28-3.86,3.48-3.86,2.42,0,3.44,1.62,3.44,3.7v10.84h5.02v-11.7c0-4.08-2.11-7.37-6.72-7.37v-.04h0ZM275.92,9.21c-4.76,0-9.14,3.86-9.14,9.78,0,6.27,4.49,9.94,9.59,9.94,4.57,0,7.52-2.68,8.46-5.9l-4.2-1.24c-.58,1.81-2.33,2.98-4.23,2.83-2.45.09-4.52-1.78-4.68-4.23h13.29c0-.08.08-.84.08-1.55,0-5.94-3.44-9.59-9.19-9.59v-.05h.02ZM271.84,16.95c.19-2.13,2.04-3.73,4.18-3.62,2.87,0,4.08,1.81,4.16,3.67l-8.33-.05h-.01ZM332.9,9.21c-4.76,0-9.14,3.86-9.14,9.78,0,6.27,4.49,9.94,9.59,9.94,4.57,0,7.52-2.68,8.46-5.9l-4.16-1.2c-.58,1.81-2.33,2.98-4.23,2.83-2.47.11-4.57-1.77-4.72-4.24h13.29c0-.08.08-.84.08-1.55,0-5.97-3.43-9.62-9.19-9.62v-.05h.02ZM328.83,16.95c.16-2.15,2.01-3.77,4.16-3.67,2.87,0,4.08,1.81,4.16,3.67h-8.32ZM252.47,23.83c-4.3,0-8.31-3.13-8.31-8.84,0-6.08,4.23-8.95,8.23-8.95,4.64,0,6.72,2.83,7.37,5.4l4.91-1.55c-1.05-4.34-4.87-8.88-12.28-8.88-7.47-.07-13.58,5.93-13.65,13.39v.59c0,8.54,6.23,13.92,13.71,13.92s11.37-4.97,12.39-9.11l-4.87-1.47c-.89,3.38-4.02,5.69-7.52,5.54v-.04h.02ZM356.22,9.67c-1.59,0-4.16.46-5.29,2.91v-2.76h-4.87v18.58h5.02v-8.5c0-3.98,2.23-5.25,4.8-5.25.51,0,1.01.05,1.51.15v-5.06c-.39-.04-.78-.07-1.17-.07h0ZM217.69,20.75l-4.97-10.88h-5.63l7.87,16.23-4.38,9.67h5.33l11.67-25.91h-5.36l-4.53,10.89h0Z"/>
    <g>
      <path class="st1" d="M97.63,46.72c-.27-1.47-1.47-3.78-4.87-3.78-2.53,0-4.19,1.62-4.19,3.4,0,1.47.94,2.64,2.91,3.02l3.74.72c4.87.94,7.48,4.12,7.48,7.89,0,4.12-3.44,8.27-9.67,8.27-7.1,0-10.24-4.57-10.65-8.39l4.84-1.28c.23,2.64,2.08,5.02,5.86,5.02,2.8,0,4.34-1.4,4.34-3.29,0-1.55-1.17-2.76-3.25-3.17l-3.74-.76c-4.27-.87-7.03-3.63-7.03-7.67,0-4.76,4.27-8.39,9.33-8.39,6.5,0,8.99,3.93,9.59,6.95l-4.68,1.44v.02Z"/>
      <path class="st1" d="M108.95,37.88c1.74,0,3.1,1.4,3.1,3.14s-1.36,3.06-3.1,3.06-3.1-1.4-3.1-3.06,1.4-3.14,3.1-3.14ZM106.47,65.68v-18.59h5.02v18.59h-5.02Z"/>
      <path class="st1" d="M116.25,72.87v-25.76h4.87v2.27c.83-1.44,2.91-2.68,5.7-2.68,5.44,0,8.58,4.16,8.58,9.67s-3.51,9.78-8.76,9.78c-2.57,0-4.46-1.02-5.36-2.27v8.99h-5.03ZM125.83,51.19c-2.57,0-4.65,1.93-4.65,5.21s2.08,5.25,4.65,5.25,4.61-1.93,4.61-5.25-2.04-5.21-4.61-5.21Z"/>
      <path class="st1" d="M155.96,60.37c-.94,3.21-3.89,5.89-8.46,5.89-5.1,0-9.59-3.66-9.59-9.94,0-5.93,4.38-9.78,9.14-9.78,5.74,0,9.18,3.66,9.18,9.63,0,.72-.08,1.47-.08,1.55h-13.3c.11,2.46,2.19,4.23,4.68,4.23,2.34,0,3.63-1.17,4.23-2.83l4.19,1.25h.01ZM151.28,54.28c-.08-1.85-1.28-3.66-4.16-3.66-2.61,0-4.04,1.96-4.16,3.66h8.32Z"/>
      <path class="st1" d="M159.94,65.69v-27.35h5.02v27.35h-5.02Z"/>
      <path class="st1" d="M172.22,37.88c1.74,0,3.1,1.4,3.1,3.14s-1.36,3.06-3.1,3.06-3.1-1.4-3.1-3.06,1.4-3.14,3.1-3.14ZM169.72,65.68v-18.59h5.02v18.59h-5.02Z"/>
      <path class="st1" d="M184,55l4.57-.68c1.06-.15,1.4-.68,1.4-1.32,0-1.32-1.02-2.42-3.14-2.42s-3.4,1.4-3.55,3.02l-4.46-.94c.3-2.91,2.98-6.12,7.97-6.12,5.89,0,8.08,3.32,8.08,7.06v9.14c0,.98.11,2.3.23,2.95h-4.61c-.11-.49-.19-1.51-.19-2.23-.94,1.47-2.72,2.76-5.48,2.76-3.97,0-6.38-2.68-6.38-5.59,0-3.32,2.46-5.17,5.55-5.63h.01ZM189.97,58.17v-.83l-4.19.64c-1.28.19-2.3.91-2.3,2.34,0,1.1.79,2.15,2.42,2.15,2.11,0,4.08-1.02,4.08-4.31h0Z"/>
      <path class="st1" d="M202.69,59.08c1.93,0,3.48,1.55,3.48,3.44s-1.55,3.44-3.48,3.44-3.44-1.55-3.44-3.44,1.55-3.44,3.44-3.44Z"/>
    </g>
    <path class="st0" d="M23.76,26.35c-2.86,1.65-4.63,4.71-4.62,8.01v24.05c0,.85.69,1.54,1.54,1.54.27,0,.54-.07.78-.21l9.26-5.34c1.42-.82,2.31-2.33,2.32-3.98v-8.04c0-3.31,1.77-6.36,4.63-8.01l27.76-16.05-9.26-5.35c-2.86-1.65-6.39-1.65-9.26,0l-23.15,13.37h0ZM64.32,24.88c-.41-.12-.85-.07-1.22.15l-9.26,5.34c-1.42.82-2.31,2.33-2.32,3.98v8.01c0,3.31-1.77,6.36-4.63,8.01l-27.77,16.07,9.26,5.35c2.86,1.65,6.39,1.65,9.26,0l23.15-13.37c2.86-1.65,4.63-4.71,4.62-8.01v-24.05c0-.68-.44-1.28-1.09-1.48h0ZM19.13,23.7L46.89,7.64l-9.26-5.35c-2.86-1.65-6.39-1.65-9.26,0L5.24,15.66c-2.86,1.66-4.62,4.71-4.61,8.01h0v26.72c0,3.31,1.76,6.36,4.62,8.01l9.3,5.35V31.69c-.01-3.3,1.74-6.35,4.58-8.01h0v.02Z"/>
  </g>
  <g>
    <polygon class="st0" points="61.62 5.54 61.62 5.54 63.18 9.32 63.59 9.32 65.15 5.54 65.16 5.54 65.16 9.32 65.79 9.32 65.79 4.72 64.86 4.72 63.4 8.2 63.37 8.2 61.91 4.72 60.98 4.72 60.98 9.32 61.62 9.32 61.62 5.54"/>
    <polygon class="st0" points="58.26 9.32 58.88 9.32 58.88 5.3 60.37 5.3 60.37 4.72 56.79 4.72 56.79 5.3 58.26 5.3 58.26 9.32"/>
  </g>
  <g>
    <polygon class="st1" points="208.49 45.09 208.46 45.09 207 41.61 206.06 41.61 206.06 46.21 206.69 46.21 206.69 42.43 206.69 42.43 208.25 46.21 208.67 46.21 210.22 42.43 210.24 42.43 210.24 46.21 210.86 46.21 210.86 41.61 209.94 41.61 208.49 45.09"/>
    <polygon class="st1" points="203.97 46.21 203.97 42.19 205.44 42.19 205.44 41.61 201.86 41.61 201.86 42.19 203.33 42.19 203.33 46.21 203.97 46.21"/>
  </g>
</svg>
