<?xml version="1.0" encoding="UTF-8"?><svg xmlns="http://www.w3.org/2000/svg" viewBox="0 0 358.83 72.8"><defs><style>.f{fill:#ff9e1b;}.g{fill:#1b365d;}</style></defs><g id="a"/><g id="b"><g id="c"><g id="d"><path class="g" d="M127,46.74h-5v10.87c.18,1.85-1.18,3.5-3.03,3.68-.17,.02-.33,.02-.5,.01-2.36,0-3.42-1.67-3.42-3.76v-10.8h-5.05v11.81c0,4.07,2.58,7.37,7.1,7.37,2.04,.11,4-.84,5.17-2.51,0,.67,.05,1.34,.15,2h4.83c-.13-1.12-.19-2.25-.19-3.38l-.06-15.29Zm11.63-5.58h-4.53v2.62c.18,1.48-.88,2.81-2.35,2.99-.18,.02-.36,.02-.54,.01h-1v4.48h3.38v8.7c0,3.61,2.28,5.78,5.93,5.78,.97,.03,1.94-.12,2.85-.46v-4.22c-.51,.11-1.04,.16-1.56,.15-1.44,0-2.2-.53-2.2-2.17v-7.82h3.76v-4.48h-3.76l.02-5.58Zm-2.58-17.29c-2.58,0-4.79-1.9-4.79-5.28s2.17-5.24,4.75-5.24c1.96-.08,3.7,1.24,4.14,3.15l4.52-1.52c-.8-3.15-3.68-6.31-8.78-6.31-5.29-.05-9.61,4.2-9.66,9.48,0,.15,0,.31,0,.46-.14,5.34,4.08,9.78,9.42,9.92,.14,0,.28,0,.42,0,4.02,.18,7.64-2.43,8.74-6.31l-4.45-1.48c-.53,1.91-2.31,3.21-4.29,3.13h-.03Zm60.49-1.44c0,3.61,2.28,5.78,5.93,5.78,.97,.03,1.94-.12,2.85-.46v-4.14c-.51,.11-1.04,.16-1.56,.15-1.44,0-2.2-.53-2.2-2.17v-7.87h3.76v-4.48h-3.76V3.61h-4.56v2.62c.18,1.48-.88,2.81-2.35,2.99-.18,.02-.36,.02-.54,.01h-.95v4.48h3.38v8.72Zm-103.9,1.4c-3.8,0-5.66-2.39-5.89-5.05l-4.86,1.29c.42,3.84,3.57,8.43,10.71,8.43,6.27,0,9.73-4.18,9.73-8.32,0-3.8-2.62-7-7.52-7.94l-3.81-.72c-2-.38-2.93-1.56-2.93-3,0-1.79,1.67-3.42,4.22-3.42,2.37-.19,4.49,1.46,4.9,3.8l4.81-1.49c-.61-3-3.12-7-9.65-7-5.09,0-9.38,3.65-9.38,8.43,0,4.07,2.77,6.84,7.07,7.71l3.76,.76c2.09,.42,3.27,1.63,3.27,3.19-.07,1.92-1.61,3.33-4.43,3.33Zm92.26,4.1h5.1V9.24h-5.05l-.05,18.69Zm-29.75,.49c2.04,.11,4-.84,5.17-2.51,0,.67,.05,1.34,.15,2h4.83c-.13-1.12-.19-2.25-.19-3.38V9.24h-5.05v10.86c.18,1.85-1.18,3.5-3.03,3.68-.17,.02-.33,.02-.5,.01-2.36,0-3.42-1.67-3.42-3.76V9.24h-5.11v11.81c0,4.07,2.63,7.38,7.15,7.38h0Zm19.84-9.01c0-4,2.24-5.28,4.83-5.28,.51,0,1.02,.05,1.52,.15v-5.13c-.39-.05-.79-.07-1.18-.08-1.6,0-4.18,.46-5.32,2.93v-2.77h-4.9V27.93h5.06v-8.51Zm-60.5,9.12c4.6,0,7.56-2.7,8.51-5.93l-4.22-1.25c-.59,1.82-2.35,3-4.26,2.85-2.46,.09-4.55-1.79-4.71-4.25h13.37c0-.08,.08-.84,.08-1.56,0-6-3.46-9.69-9.23-9.69-4.79,0-9.19,3.88-9.19,9.84,0,6.27,4.51,9.95,9.64,9.95v.04Zm-.37-15.73c2.89,0,4.1,1.82,4.18,3.69h-8.36c.14-2.17,2-3.83,4.17-3.73v.04Zm73.31-6.57c1.72,.1,3.19-1.22,3.29-2.94S189.49,.1,187.77,0c-.12,0-.24,0-.35,0-1.72-.1-3.19,1.22-3.29,2.94s1.22,3.19,2.94,3.29c.12,0,.24,0,.35,0ZM91.47,38.49l-10.34,26.94h5.55l2.24-6.16h10.94l2.24,6.16h5.7l-10.26-26.94h-6.07Zm-.8,16l3.72-10.18,3.72,10.18h-7.44ZM318.55,3.61h-4.55v2.62c.18,1.48-.88,2.81-2.35,2.99-.18,.02-.36,.02-.54,.01h-.95v4.48h3.38v8.7c0,3.61,2.28,5.78,5.93,5.78,.97,.03,1.94-.12,2.85-.46v-4.12c-.51,.11-1.04,.16-1.56,.15-1.44,0-2.2-.53-2.2-2.17v-7.87h3.76v-4.48h-3.76V3.61Zm-18.14,5.09c-2.17-.07-4.21,.99-5.4,2.81v-2.27h-4.9V27.93h5.05v-10.75c0-2.17,1.29-3.88,3.5-3.88,2.43,0,3.46,1.63,3.46,3.72v10.9h5.05v-11.77c.01-4.1-2.12-7.41-6.76-7.41v-.04Zm-23.52-.08c-4.79,0-9.19,3.88-9.19,9.84,0,6.31,4.52,10,9.65,10,4.6,0,7.56-2.7,8.51-5.93l-4.22-1.25c-.59,1.82-2.34,3-4.25,2.85-2.46,.09-4.55-1.79-4.71-4.25h13.37c0-.08,.08-.84,.08-1.56,0-5.97-3.46-9.65-9.24-9.65v-.05Zm-4.1,7.79c.19-2.15,2.05-3.76,4.2-3.64,2.89,0,4.1,1.82,4.18,3.69l-8.38-.05Zm61.41-7.79c-4.79,0-9.19,3.88-9.19,9.84,0,6.31,4.52,10,9.65,10,4.6,0,7.56-2.7,8.51-5.93l-4.18-1.21c-.59,1.82-2.34,3-4.25,2.85-2.48,.11-4.59-1.78-4.75-4.26h13.37c0-.08,.08-.84,.08-1.56,0-6-3.45-9.68-9.24-9.68v-.05Zm-4.1,7.79c.17-2.16,2.02-3.79,4.18-3.69,2.89,0,4.1,1.82,4.18,3.69h-8.36Zm-76.8,6.92c-4.33,0-8.36-3.15-8.36-8.89,0-6.12,4.25-9,8.28-9,4.67,0,6.76,2.85,7.41,5.43l4.94-1.56c-1.06-4.37-4.9-8.93-12.35-8.93-7.51-.07-13.66,5.96-13.73,13.47,0,.2,0,.39,0,.59,0,8.59,6.27,14,13.79,14s11.44-5,12.46-9.16l-4.9-1.48c-.9,3.4-4.04,5.72-7.56,5.57v-.04Zm104.35-14.24c-1.6,0-4.18,.46-5.32,2.93v-2.78h-4.9V27.93h5.05v-8.55c0-4,2.24-5.28,4.83-5.28,.51,0,1.02,.05,1.52,.15v-5.09c-.39-.04-.79-.07-1.18-.07ZM215.65,58.79c-1.91,.02-3.44,1.59-3.42,3.5,.02,1.91,1.59,3.44,3.5,3.42,1.9-.02,3.42-1.56,3.42-3.46,0-1.92-1.55-3.47-3.47-3.47h-.03Zm-8.59-11.99h-5.06v10.82c.18,1.85-1.18,3.5-3.03,3.68-.17,.02-.33,.02-.5,.01-2.36,0-3.42-1.67-3.42-3.76v-10.8h-5.05v11.81c0,4.07,2.58,7.37,7.1,7.37,2.04,.11,4-.84,5.17-2.51,0,.67,.05,1.34,.15,2h4.83c-.13-1.12-.19-2.25-.19-3.38v-15.24Zm11.25-26.56l-5-10.94h-5.66l7.92,16.32-4.41,9.73h5.36l11.74-26.06h-5.39l-4.56,10.95Zm-42.15,38.29l-7-20h-5.76l10,26.94h5.39l10-26.94h-5.55l-7.08,20Zm-21.24-12.35c-5.28-.13-9.67,4.05-9.8,9.33,0,.2,0,.39,0,.59,0,5.41,4.39,9.8,9.8,9.8s9.8-4.39,9.8-9.8c.19-5.28-3.93-9.72-9.21-9.92-.2,0-.39,0-.59,0Zm0,15.24c-2.47,0-4.75-1.82-4.75-5.32s2.28-5.32,4.75-5.32,4.75,1.79,4.75,5.32-2.28,5.31-4.75,5.31h0Z"/><path class="f" d="M23.27,25.86c-2.88,1.66-4.65,4.74-4.65,8.06v24.19c0,.86,.69,1.55,1.55,1.55,.27,0,.54-.07,.78-.21l9.31-5.37c1.43-.82,2.32-2.35,2.33-4v-8.09c0-3.33,1.78-6.4,4.66-8.06l27.92-16.14-9.31-5.38c-2.88-1.66-6.43-1.66-9.31,0l-23.28,13.45Zm40.79-1.48c-.41-.12-.86-.07-1.23,.15l-9.31,5.37c-1.43,.82-2.32,2.35-2.33,4v8.06c0,3.33-1.78,6.4-4.66,8.06l-27.93,16.16,9.31,5.38c2.88,1.66,6.43,1.66,9.31,0l23.28-13.45c2.88-1.66,4.65-4.74,4.65-8.06V25.86c0-.69-.44-1.29-1.1-1.49h0Zm-45.44-1.19L46.54,7.04,37.23,1.66C34.35,0,30.8,0,27.92,1.66L4.64,15.11C1.77,16.77,0,19.84,0,23.17H0v26.88c0,3.33,1.77,6.4,4.65,8.06l9.35,5.38V31.23c-.01-3.32,1.75-6.39,4.61-8.06h0Z"/></g><g id="e"><polygon class="f" points="60.98 5.09 60.99 5.09 62.54 8.87 62.96 8.87 64.51 5.09 64.53 5.09 64.53 8.87 65.15 8.87 65.15 4.27 64.22 4.27 62.77 7.75 62.75 7.75 61.28 4.27 60.35 4.27 60.35 8.87 60.98 8.87 60.98 5.09"/><polygon class="f" points="57.63 8.87 58.25 8.87 58.25 4.85 59.73 4.85 59.73 4.27 56.15 4.27 56.15 4.85 57.63 4.85 57.63 8.87"/><polygon class="g" points="221.13 44.64 221.1 44.64 219.64 41.16 218.71 41.16 218.71 45.76 219.34 45.76 219.34 41.98 219.35 41.98 220.9 45.76 221.32 45.76 222.87 41.98 222.88 41.98 222.88 45.76 223.51 45.76 223.51 41.16 222.58 41.16 221.13 44.64"/><polygon class="g" points="216.61 45.76 216.61 41.74 218.09 41.74 218.09 41.16 214.51 41.16 214.51 41.74 215.99 41.74 215.99 45.76 216.61 45.76"/></g></g></g></svg>