<?xml version="1.0" encoding="UTF-8"?><svg xmlns="http://www.w3.org/2000/svg" viewBox="0 0 273.98 72.39"><defs><style>.f{fill:#1b365d;}.g{fill:#716e6a;}</style></defs><g id="a"/><g id="b"><g id="c"><g id="d"><path class="g" d="M64.05,23.96c-.41-.12-.86-.07-1.23,.15l-9.31,5.37c-1.43,.82-2.32,2.35-2.33,4v8.06c0,3.33-1.78,6.4-4.66,8.06l-27.92,16.17,9.31,5.38c2.88,1.66,6.43,1.66,9.31,0l23.28-13.45c2.88-1.66,4.65-4.74,4.65-8.06V25.45c0-.69-.44-1.29-1.1-1.49Zm-45.44-1.2L46.54,6.63,37.23,1.25c-2.88-1.66-6.43-1.66-9.31,0L4.64,14.7C1.77,16.36,0,19.44,0,22.76H0v26.88c0,3.33,1.77,6.4,4.65,8.06l9.35,5.38V30.82c-.01-3.32,1.75-6.39,4.61-8.06Zm4.65,2.69c-2.88,1.66-4.65,4.74-4.65,8.06v24.19c0,.86,.69,1.55,1.55,1.55,.27,0,.54-.07,.78-.21l9.31-5.37c1.43-.82,2.32-2.35,2.33-4v-8.1c0-3.33,1.78-6.4,4.66-8.06l27.92-16.13-9.31-5.38c-2.88-1.66-6.43-1.66-9.31,0l-23.28,13.45Z"/><path class="f" d="M121.75,28.09c4.6,0,7.56-2.7,8.51-5.93l-4.26-1.25c-.59,1.82-2.35,3-4.26,2.85-2.47,.09-4.55-1.8-4.71-4.26h13.37c0-.08,.08-.84,.08-1.56,0-6-3.46-9.69-9.23-9.69-4.79,0-9.19,3.88-9.19,9.84,.04,6.32,4.56,10,9.69,10Zm-.38-15.73c2.89,0,4.1,1.82,4.18,3.69h-8.36c.17-2.16,2.02-3.79,4.18-3.69Zm-25.69,15.73c4.07,0,6.73-1.82,7.94-3.65l.34,3.08h4.26V13.52h-13.45v4.56h8.51c-.3,1.9-2.24,5.24-7.22,5.24-4.52,0-8.51-3.15-8.51-9.23,0-6.38,4.41-9.16,8.47-9.16,3.34-.18,6.36,1.96,7.29,5.17l5-1.79C107,4.2,103.09,0,96,0s-13.79,5.36-13.79,14.06,6.22,14.02,13.47,14.02Zm126,0c4.02,.18,7.64-2.43,8.74-6.31l-4.42-1.48c-.52,1.92-2.3,3.22-4.29,3.15-2.58,0-4.79-1.9-4.79-5.28s2.17-5.24,4.75-5.24c1.96-.08,3.7,1.24,4.14,3.15l4.52-1.52c-.8-3.15-3.69-6.31-8.78-6.31-5.29-.05-9.61,4.19-9.67,9.47,0,.16,0,.32,0,.48-.12,5.34,4.11,9.77,9.45,9.89,.13,0,.26,0,.39,0h-.05ZM96,60.46c-4.33,0-8.36-3.15-8.36-8.89,0-6.12,4.26-9,8.28-9,4.67,0,6.76,2.85,7.41,5.43l4.94-1.56c-1.06-4.37-4.9-8.93-12.35-8.93-7.51-.05-13.64,5.99-13.7,13.5,0,.19,0,.37,0,.56,0,8.59,6.27,14,13.79,14s11.44-5,12.46-9.16l-4.9-1.48c-.91,3.4-4.07,5.7-7.58,5.53Zm170-2.09c-1.91,.02-3.44,1.59-3.42,3.5,.02,1.91,1.59,3.44,3.5,3.42,1.9-.02,3.42-1.56,3.42-3.46,0-1.9-1.53-3.44-3.43-3.46h-.07Zm-65.86-30.28c4.6,0,7.56-2.7,8.51-5.93l-4.22-1.25c-.59,1.82-2.34,3-4.25,2.85-2.47,.09-4.55-1.8-4.71-4.26h13.37c0-.08,.08-.84,.08-1.56,0-6-3.46-9.69-9.23-9.69-4.79,0-9.19,3.88-9.19,9.84,0,6.32,4.5,10,9.64,10Zm-.38-15.73c2.89,0,4.1,1.82,4.18,3.69h-8.36c.17-2.16,2.02-3.79,4.18-3.69Zm-34.76,15.73c4.6,0,7.56-2.7,8.51-5.93l-4.22-1.25c-.59,1.83-2.37,3.02-4.29,2.85-2.47,.09-4.55-1.8-4.71-4.26h13.37c0-.08,.08-.84,.08-1.56,0-6-3.46-9.69-9.23-9.69-4.79,0-9.19,3.88-9.19,9.84,0,6.32,4.51,10,9.68,10Zm-.38-15.73c2.89,0,4.1,1.82,4.18,3.69h-8.4c.17-2.16,2.02-3.79,4.18-3.69h.04Zm-52.52,52.66h5.05v-27.51h-5.05v27.51Zm47-12.16c0-3.76-2.2-7.1-8.13-7.1-5,0-7.71,3.23-8,6.16l4.48,.95c.17-1.81,1.76-3.14,3.57-3,2.13,0,3.15,1.1,3.15,2.43,0,.65-.34,1.18-1.41,1.33l-4.6,.68c-3.12,.46-5.58,2.32-5.58,5.66,0,2.93,2.43,5.62,6.42,5.62,2.2,.11,4.29-.94,5.51-2.77,0,.75,.06,1.5,.19,2.24h4.63c-.15-.99-.23-2-.23-3v-9.2Zm-4.94,4.6c0,3.31-2,4.33-4.1,4.33-1.2,.13-2.28-.73-2.42-1.94,0-.08-.01-.16-.01-.23,0-1.3,1.07-2.36,2.37-2.35h0l4.22-.65-.06,.84Zm24.74-35.45c0,3.61,2.28,5.78,5.93,5.78,.97,.03,1.94-.12,2.85-.46v-4.13c-.51,.11-1.04,.16-1.56,.15-1.44,0-2.2-.53-2.2-2.17v-7.87h3.76v-4.48h-3.68V3.2h-4.6v2.62c.18,1.48-.88,2.81-2.35,2.99-.18,.02-.36,.02-.54,.01h-.95v4.48h3.38l-.04,8.71Zm-10.14,27.09v-2.77h-4.9v18.69h5.05v-8.55c0-4,2.24-5.28,4.83-5.28,.51,0,1.02,.05,1.52,.15v-5.09c-.39-.05-.79-.07-1.18-.08-1.6,.03-4.18,.46-5.32,2.93Zm60.91,11.85c-2.58,0-4.79-1.9-4.79-5.28s2.17-5.24,4.75-5.24c1.96-.08,3.7,1.24,4.14,3.15l4.52-1.52c-.8-3.15-3.69-6.31-8.78-6.31-5.28-.07-9.63,4.16-9.7,9.44,0,.16,0,.32,0,.48-.14,5.34,4.08,9.78,9.42,9.92,.14,0,.28,0,.42,0,4.02,.18,7.64-2.43,8.74-6.31l-4.4-1.48c-.52,1.94-2.32,3.25-4.33,3.16h0Zm-35.34-8.1c0-3.76-2.2-7.1-8.13-7.1-5,0-7.71,3.23-8,6.16l4.48,.95c.17-1.81,1.76-3.14,3.57-3,2.13,0,3.15,1.1,3.15,2.43,0,.65-.34,1.18-1.41,1.33l-4.6,.68c-3.12,.46-5.58,2.32-5.58,5.66,0,2.93,2.43,5.62,6.42,5.62,2.2,.11,4.29-.94,5.51-2.77,0,.75,.06,1.5,.19,2.24h4.64c-.15-.99-.23-2-.23-3v-9.2Zm-4.95,4.6c0,3.31-2,4.33-4.1,4.33-1.2,.13-2.28-.73-2.42-1.94,0-.08-.01-.16-.01-.23,0-1.29,1.03-2.34,2.32-2.36l4.22-.65v.85Zm60.71-11.7c-4.79,0-9.19,3.88-9.19,9.84,0,6.31,4.52,10,9.65,10,4.6,0,7.56-2.7,8.51-5.93l-4.22-1.25c-.59,1.82-2.34,3-4.25,2.85-2.47,.09-4.55-1.8-4.71-4.26h13.37c0-.08,.08-.84,.08-1.56,0-6.01-3.46-9.69-9.24-9.69Zm-4.11,7.79c.17-2.16,2.02-3.79,4.18-3.69,2.89,0,4.1,1.82,4.18,3.69h-8.36ZM146.53,16.62v10.9h5.05V15.74c0-4.1-2.13-7.41-6.76-7.41-2.17-.07-4.21,.99-5.4,2.81v-2.31h-4.9V27.52h5.05v-10.75c0-2.17,1.29-3.88,3.5-3.88,2.43,0,3.46,1.64,3.46,3.73Zm-16.19,29.14c-4.79,0-9.19,3.88-9.19,9.84,0,6.31,4.52,10,9.65,10,4.6,0,7.56-2.7,8.51-5.93l-4.22-1.25c-.59,1.82-2.35,3-4.26,2.85-2.47,.09-4.55-1.8-4.71-4.26h13.38c0-.08,.08-.84,.08-1.56,0-6.01-3.47-9.69-9.24-9.69Zm-4.1,7.79c.17-2.16,2.02-3.79,4.18-3.69,2.89,0,4.1,1.82,4.18,3.69h-8.36Zm83.1-7.71c-2.17-.07-4.21,.99-5.4,2.81v-2.32h-4.94v18.69h5.05v-10.75c0-2.17,1.29-3.88,3.5-3.88,2.43,0,3.46,1.63,3.46,3.72v10.9h5.05v-11.81c.04-4.06-2.06-7.37-6.72-7.37h0Z"/></g><g id="e"><polygon class="g" points="60.98 4.68 60.99 4.68 62.54 8.46 62.96 8.46 64.51 4.68 64.53 4.68 64.53 8.46 65.15 8.46 65.15 3.86 64.22 3.86 62.77 7.34 62.75 7.34 61.28 3.86 60.35 3.86 60.35 8.46 60.98 8.46 60.98 4.68"/><polygon class="g" points="57.63 8.46 58.25 8.46 58.25 4.44 59.73 4.44 59.73 3.86 56.15 3.86 56.15 4.44 57.63 4.44 57.63 8.46"/><polygon class="f" points="271.6 44.23 271.58 44.23 270.11 40.75 269.18 40.75 269.18 45.35 269.81 45.35 269.81 41.57 269.82 41.57 271.38 45.35 271.79 45.35 273.35 41.57 273.36 41.57 273.36 45.35 273.98 45.35 273.98 40.75 273.05 40.75 271.6 44.23"/><polygon class="f" points="267.08 45.35 267.08 41.33 268.56 41.33 268.56 40.75 264.98 40.75 264.98 41.33 266.46 41.33 266.46 45.35 267.08 45.35"/></g></g></g></svg>