<?xml version="1.0" encoding="utf-8"?>
<!-- Generator: Adobe Illustrator 28.2.0, SVG Export Plug-In . SVG Version: 6.00 Build 0)  -->
<svg version="1.1" id="Logo" xmlns="http://www.w3.org/2000/svg" xmlns:xlink="http://www.w3.org/1999/xlink" x="0px" y="0px"
	 viewBox="0 0 404.1 90" style="enable-background:new 0 0 404.1 90;" xml:space="preserve">
<path id="Logo-2" d="M110.9,36.3l-0.3-3.1c-1.2,1.8-3.9,3.7-7.9,3.7c-7.2,0-13.4-5.3-13.4-14S95.7,8.8,103,8.8s11,4.1,12.3,8.3
	l-5,1.8c-0.7-2.4-2.9-5.2-7.3-5.2c-4.1,0-8.5,2.8-8.5,9.1s4,9.2,8.5,9.2c5,0,6.9-3.3,7.2-5.2h-8.5v-4.6h13.4v14L110.9,36.3
	L110.9,36.3z M137.2,31c-0.9,3.2-3.9,5.9-8.5,5.9c-5.1,0-9.7-3.7-9.7-10c0-6,4.4-9.8,9.2-9.8c5.8,0,9.2,3.7,9.2,9.7
	c0,0.7-0.1,1.5-0.1,1.6H124c0.1,2.5,2.2,4.2,4.7,4.2c2.4,0,3.6-1.2,4.2-2.9L137.2,31L137.2,31z M132.5,24.8
	c-0.1-1.9-1.3-3.7-4.2-3.7c-2.6,0-4.1,2-4.2,3.7H132.5z M146.6,36.3h-5.1V17.6h4.9v2.3c1.1-1.9,3.4-2.8,5.4-2.8
	c4.6,0,6.8,3.3,6.8,7.4v11.8h-5.1V25.4c0-2.1-1-3.7-3.5-3.7c-2.2,0-3.5,1.7-3.5,3.9L146.6,36.3L146.6,36.3z M180.5,31
	c-0.9,3.2-3.9,5.9-8.5,5.9c-5.1,0-9.6-3.7-9.6-10c0-6,4.4-9.8,9.2-9.8c5.8,0,9.2,3.7,9.2,9.7c0,0.7-0.1,1.5-0.1,1.6h-13.4
	c0.1,2.5,2.2,4.2,4.7,4.2c2.4,0,3.6-1.2,4.2-2.9L180.5,31L180.5,31z M175.8,24.8c-0.1-1.9-1.3-3.7-4.2-3.7c-2.6,0-4.1,2-4.2,3.7
	H175.8L175.8,24.8z M190.9,17.6h3.8v4.5h-3.8v7.8c0,1.6,0.8,2.2,2.2,2.2c0.6,0,1.3-0.1,1.6-0.1v4.2c-0.5,0.2-1.4,0.5-2.9,0.5
	c-3.6,0-5.9-2.2-5.9-5.8v-8.7h-3.4v-4.5h0.9c2,0,2.9-1.3,2.9-3V12h4.6L190.9,17.6L190.9,17.6z M215.6,31c-0.9,3.2-3.9,5.9-8.5,5.9
	c-5.1,0-9.6-3.7-9.6-10c0-6,4.4-9.8,9.2-9.8c5.8,0,9.2,3.7,9.2,9.7c0,0.7-0.1,1.5-0.1,1.6h-13.4c0.1,2.5,2.2,4.2,4.7,4.2
	c2.4,0,3.6-1.2,4.2-2.9L215.6,31L215.6,31z M210.9,24.8c-0.1-1.9-1.3-3.7-4.2-3.7c-2.6,0-4.1,2-4.2,3.7H210.9L210.9,24.8z M223.9,27
	c0,3.4,2.2,5.3,4.8,5.3s3.9-1.7,4.3-3.1l4.4,1.5c-0.8,3.1-3.8,6.3-8.7,6.3c-5.5,0-9.8-4.2-9.8-9.9s4.2-9.9,9.7-9.9
	c5.1,0,8,3.1,8.8,6.3l-4.5,1.5c-0.5-1.6-1.6-3.1-4.1-3.1S223.9,23.6,223.9,27L223.9,27z M265.9,17.2c-0.3-1.5-1.5-3.8-4.9-3.8
	c-2.5,0-4.2,1.6-4.2,3.4c0,1.5,1,2.7,2.9,3l3.8,0.7c4.9,1,7.5,4.1,7.5,7.9c0,4.1-3.5,8.3-9.7,8.3c-7.1,0-10.3-4.6-10.7-8.4l4.9-1.3
	c0.2,2.7,2.1,5,5.9,5c2.8,0,4.4-1.4,4.4-3.3c0-1.6-1.2-2.8-3.3-3.2l-3.8-0.8c-4.3-0.9-7.1-3.6-7.1-7.7c0-4.8,4.3-8.4,9.4-8.4
	c6.5,0,9,3.9,9.6,7L265.9,17.2L265.9,17.2z M291.6,31c-1,3.2-3.9,5.9-8.5,5.9c-5.1,0-9.6-3.7-9.6-10c0-6,4.4-9.8,9.2-9.8
	c5.8,0,9.2,3.7,9.2,9.7c0,0.7-0.1,1.5-0.1,1.6h-13.4c0.1,2.5,2.2,4.2,4.7,4.2c2.4,0,3.6-1.2,4.2-2.9L291.6,31L291.6,31z M286.9,24.8
	c-0.1-1.9-1.3-3.7-4.2-3.7c-2.6,0-4.1,2-4.2,3.7H286.9z M300,27c0,3.4,2.2,5.3,4.8,5.3s3.9-1.7,4.3-3.1l4.4,1.5
	c-0.8,3.1-3.8,6.3-8.7,6.3c-5.5,0-9.8-4.2-9.8-9.9s4.2-9.9,9.7-9.9c5.1,0,8,3.1,8.8,6.3l-4.5,1.5c-0.5-1.6-1.6-3.1-4.1-3.1
	S299.9,23.6,300,27L300,27z M328.9,34.3c-1,1.8-3.2,2.5-5.2,2.5c-4.5,0-7.1-3.3-7.1-7.4V17.6h5v10.8c0,2.1,1.1,3.8,3.4,3.8
	s3.5-1.5,3.5-3.7V17.6h5v15.3c0,1.4,0.1,2.7,0.2,3.4h-4.8C329,35.9,328.9,35.1,328.9,34.3L328.9,34.3z M350,22.6
	c-0.6-0.1-1.1-0.1-1.5-0.1c-2.6,0-4.8,1.2-4.8,5.3v8.5h-5V17.6h4.9v2.8c1.1-2.5,3.7-2.9,5.3-2.9c0.4,0,0.8,0,1.2,0.1L350,22.6
	L350,22.6z M356.1,8.4c1.8,0,3.1,1.4,3.1,3.1s-1.4,3.1-3.1,3.1s-3.1-1.4-3.1-3.1S354.4,8.4,356.1,8.4z M353.6,36.3V17.6h5v18.7
	H353.6z M370.2,17.6h3.8v4.5h-3.8v7.8c0,1.6,0.8,2.2,2.2,2.2c0.6,0,1.3-0.1,1.6-0.1v4.2c-0.5,0.2-1.4,0.5-2.9,0.5
	c-3.6,0-5.9-2.2-5.9-5.8v-8.7h-3.4v-4.5h1c2,0,2.9-1.3,2.9-3V12h4.6L370.2,17.6L370.2,17.6z M379.8,43.7l4.4-9.7l-7.9-16.3h5.7
	l5,10.9l4.6-10.9h5.4l-11.7,26H379.8L379.8,43.7z M89.2,60.3c0-8.6,6.5-14,13.7-14s11.3,4.6,12.3,8.9l-4.9,1.6
	c-0.7-2.6-2.7-5.4-7.4-5.4c-4,0-8.3,2.9-8.3,9c0,5.7,4,8.9,8.4,8.9c4.6,0,6.8-3,7.6-5.5l4.9,1.5c-1,4.1-4.9,9.2-12.5,9.2
	S89.2,68.9,89.2,60.3L89.2,60.3z M135.6,68.4c-0.9,3.2-3.9,5.9-8.5,5.9c-5.1,0-9.7-3.7-9.7-10c0-6,4.4-9.8,9.2-9.8
	c5.8,0,9.2,3.7,9.2,9.7c0,0.7-0.1,1.5-0.1,1.6h-13.4c0.1,2.5,2.2,4.2,4.7,4.2c2.4,0,3.6-1.2,4.2-2.8L135.6,68.4L135.6,68.4z
	 M130.9,62.3c-0.1-1.9-1.3-3.7-4.2-3.7c-2.6,0-4.1,2-4.2,3.7H130.9z M144.9,73.8h-5.1V55.1h4.9v2.3c1.1-1.9,3.4-2.8,5.4-2.8
	c4.6,0,6.8,3.3,6.8,7.4v11.8h-5.1V62.9c0-2.1-1-3.7-3.5-3.7c-2.2,0-3.5,1.7-3.5,3.9L144.9,73.8L144.9,73.8z M168.3,55.1h3.8v4.5
	h-3.8v7.8c0,1.6,0.8,2.2,2.2,2.2c0.6,0,1.3-0.1,1.6-0.2v4.2c-0.5,0.2-1.4,0.5-2.9,0.5c-3.6,0-5.9-2.2-5.9-5.8v-8.7h-3.4v-4.5h0.9
	c2,0,2.9-1.3,2.9-3v-2.6h4.6L168.3,55.1L168.3,55.1z M192.9,68.4c-0.9,3.2-3.9,5.9-8.5,5.9c-5.1,0-9.6-3.7-9.6-10
	c0-6,4.4-9.8,9.2-9.8c5.8,0,9.2,3.7,9.2,9.7c0,0.7-0.1,1.5-0.1,1.6h-13.4c0.1,2.5,2.2,4.2,4.7,4.2c2.4,0,3.6-1.2,4.2-2.8L192.9,68.4
	L192.9,68.4z M188.2,62.3c-0.1-1.9-1.3-3.7-4.2-3.7c-2.6,0-4.1,2-4.2,3.7H188.2L188.2,62.3z M208.5,60.1C208,60,207.5,60,207,60
	c-2.6,0-4.8,1.2-4.8,5.3v8.5h-5.1V55.1h4.9v2.8c1.1-2.5,3.7-2.9,5.3-2.9c0.4,0,0.8,0,1.2,0.1L208.5,60.1L208.5,60.1z M236.7,54.7
	c-0.3-1.5-1.5-3.8-4.9-3.8c-2.5,0-4.2,1.6-4.2,3.4c0,1.5,0.9,2.7,2.9,3l3.8,0.7c4.9,1,7.5,4.1,7.5,7.9c0,4.1-3.5,8.3-9.7,8.3
	c-7.1,0-10.3-4.6-10.7-8.4l4.9-1.3c0.2,2.7,2.1,5.1,5.9,5.1c2.8,0,4.4-1.4,4.4-3.3c0-1.6-1.2-2.8-3.3-3.2l-3.8-0.8
	c-4.3-0.9-7.1-3.7-7.1-7.7c0-4.8,4.3-8.4,9.4-8.4c6.5,0,9,4,9.6,7L236.7,54.7L236.7,54.7z M250.7,63l4.6-0.7
	c1.1-0.2,1.4-0.7,1.4-1.3c0-1.3-1-2.4-3.1-2.4s-3.4,1.4-3.6,3l-4.5-1c0.3-2.9,3-6.2,8-6.2c5.9,0,8.1,3.3,8.1,7.1v9.2
	c0,1,0.1,2.3,0.2,3h-4.6c-0.1-0.5-0.2-1.5-0.2-2.2c-1,1.5-2.7,2.8-5.5,2.8c-4,0-6.4-2.7-6.4-5.6C245.2,65.4,247.6,63.5,250.7,63
	L250.7,63z M256.7,66.2v-0.8l-4.2,0.7c-1.3,0.2-2.3,0.9-2.3,2.4c0,1.1,0.8,2.2,2.4,2.2C254.8,70.6,256.7,69.5,256.7,66.2L256.7,66.2
	z M271.4,63l4.6-0.7c1.1-0.2,1.4-0.7,1.4-1.3c0-1.3-1-2.4-3.1-2.4s-3.4,1.4-3.6,3l-4.5-1c0.3-2.9,3-6.2,8-6.2c5.9,0,8.1,3.3,8.1,7.1
	v9.2c0,1,0.1,2.3,0.2,3H278c-0.1-0.5-0.2-1.5-0.2-2.2c-1,1.5-2.7,2.8-5.5,2.8c-4,0-6.4-2.7-6.4-5.6C265.9,65.4,268.3,63.5,271.4,63
	L271.4,63z M277.4,66.2v-0.8l-4.2,0.7c-1.3,0.2-2.3,0.9-2.3,2.4c0,1.1,0.8,2.2,2.4,2.2C275.4,70.6,277.4,69.5,277.4,66.2L277.4,66.2
	z M301.6,54.7c-0.3-1.5-1.5-3.8-4.9-3.8c-2.5,0-4.2,1.6-4.2,3.4c0,1.5,1,2.7,2.9,3l3.8,0.7c4.9,1,7.5,4.1,7.5,7.9
	c0,4.1-3.5,8.3-9.7,8.3c-7.1,0-10.3-4.6-10.7-8.4l4.9-1.3c0.2,2.7,2.1,5.1,5.9,5.1c2.8,0,4.4-1.4,4.4-3.3c0-1.6-1.2-2.8-3.3-3.2
	l-3.8-0.8c-4.3-0.9-7.1-3.7-7.1-7.7c0-4.8,4.3-8.4,9.4-8.4c6.5,0,9,4,9.6,7L301.6,54.7L301.6,54.7z M53.5,20.8L30.3,34.2
	c-2.9,1.7-4.6,4.7-4.6,8.1v24.2c0,0.9,0.7,1.6,1.5,1.6c0.3,0,0.5-0.1,0.8-0.2l9.3-5.4c1.4-0.8,2.3-2.3,2.3-4v-8.1
	c0-3.3,1.8-6.4,4.7-8.1l27.9-16.1l-9.3-5.4C60,19.1,56.4,19.1,53.5,20.8L53.5,20.8z M25.6,31.6l27.9-16.1l-9.3-5.4
	c-2.9-1.7-6.4-1.7-9.3,0L11.6,23.5C8.8,25.2,7,28.2,7,31.6l0,0v26.9c0,3.3,1.8,6.4,4.7,8.1l9.4,5.4V39.6
	C21,36.3,22.7,33.2,25.6,31.6L25.6,31.6L25.6,31.6z M71.1,32.8c-0.4-0.1-0.9-0.1-1.2,0.2l-9.3,5.4c-1.4,0.8-2.3,2.3-2.3,4v8.1
	c0,3.3-1.8,6.4-4.7,8.1L25.6,74.6l9.3,5.4c2.9,1.7,6.4,1.7,9.3,0l23.3-13.4c2.9-1.7,4.7-4.7,4.7-8.1V34.2
	C72.1,33.6,71.7,33,71.1,32.8L71.1,32.8L71.1,32.8z M69.6,17.2L69.6,17.2l1,2.4h0.3l1-2.4l0,0v2.4h0.4v-2.9h-0.6l-0.9,2.2h0
	l-0.9-2.2h-0.6v2.9h0.4L69.6,17.2L69.6,17.2z M67.4,19.6h0.4V17h0.9v-0.4h-2.2V17h0.9V19.6z M238.2,12.4h0.9v2.5h0.4v-2.5h0.9V12
	h-2.2L238.2,12.4L238.2,12.4z M242.4,14.2L242.4,14.2l-0.9-2.2h-0.6v2.9h0.4v-2.4l0,0l1,2.4h0.3l1-2.4h0v2.4h0.4V12h-0.6L242.4,14.2
	L242.4,14.2z M238.2,12.4h0.9v2.5h0.4v-2.5h0.9V12h-2.2L238.2,12.4L238.2,12.4z M242.4,14.2L242.4,14.2l-0.9-2.2h-0.6v2.9h0.4v-2.4
	l0,0l1,2.4h0.3l1-2.4h0v2.4h0.4V12h-0.6L242.4,14.2L242.4,14.2z"/>
</svg>
