<?xml version="1.0" encoding="UTF-8"?>
<svg id="Layer_1" xmlns="http://www.w3.org/2000/svg" version="1.1" viewBox="0 0 359 72.44">
  <!-- Generator: Adobe Illustrator 30.0.0, SVG Export Plug-In . SVG Version: 2.1.1 Build 123)  -->
  <path id="Logo-2" d="M23.1,25.77c-2.9,1.7-4.6,4.7-4.6,8v24c0,.8.7,1.5,1.5,1.5.3,0,.5-.1.8-.2l9.3-5.3c1.4-.8,2.3-2.3,2.3-4v-8c0-3.3,1.8-6.4,4.6-8l27.8-16-9.2-5.4c-2.9-1.6-6.4-1.6-9.3,0l-23.2,13.4h0ZM63.7,24.27c-.4-.1-.8-.1-1.2.2l-9.3,5.3c-1.4.8-2.3,2.3-2.3,4v8c0,3.3-1.8,6.4-4.6,8l-27.8,16.1,9.3,5.3c2.9,1.7,6.4,1.7,9.3,0l23.2-13.4c2.9-1.7,4.6-4.7,4.6-8v-24c-.1-.7-.6-1.3-1.2-1.5h0ZM18.5,23.07L46.3,7.07l-9.3-5.4c-2.9-1.6-6.4-1.6-9.3,0L4.6,15.07c-2.9,1.7-4.6,4.7-4.6,8h0v26.7c0,3.3,1.8,6.4,4.6,8l9.3,5.3V31.07c0-3.3,1.7-6.3,4.6-8h0ZM60.1,8.67h-.9v-.4h2.2v.4h-.9v2.5h-.4v-2.5h0ZM62.2,11.17h-.4v-2.9h.6l.9,2.2h0l.9-2.2h.6v2.9h-.4v-2.4h0l-1,2.4h-.3l-1-2.4h0l.1,2.4h0ZM94.9,8.77c-.3-1.5-1.5-3.8-4.9-3.8-2.6,0-4.2,1.6-4.2,3.4,0,1.5.9,2.7,2.9,3l3.8.7c4.9,1,7.5,4.1,7.5,7.9,0,4.1-3.5,8.3-9.7,8.3-7.1,0-10.3-4.6-10.7-8.4l4.9-1.3c.2,2.7,2.1,5,5.9,5,2.8,0,4.4-1.4,4.4-3.3,0-1.6-1.2-2.8-3.3-3.2l-3.8-.8c-4.3-.9-7.1-3.6-7.1-7.7,0-4.8,4.3-8.4,9.4-8.4,6.5,0,9,3.9,9.7,7l-4.8,1.6h0ZM120.7,22.47c-.9,3.2-3.9,5.9-8.5,5.9-5.1,0-9.7-3.7-9.7-10s4.4-9.8,9.2-9.8c5.8,0,9.2,3.7,9.2,9.7,0,.7-.1,1.5-.1,1.6h-13.4c.1,2.5,2.2,4.3,4.7,4.3s3.7-1.2,4.2-2.9l4.4,1.2h0ZM116,16.37c-.1-1.9-1.3-3.7-4.2-3.7-2.6,0-4.1,2-4.2,3.7h8.4ZM128.8,18.47c0,3.4,2.2,5.3,4.8,5.3s3.9-1.7,4.3-3.1l4.4,1.5c-.8,3.1-3.8,6.3-8.7,6.3-5.5,0-9.8-4.2-9.8-9.9s4.2-9.9,9.7-9.9c5.1,0,8,3.1,8.8,6.3l-4.5,1.5c-.5-1.6-1.6-3.1-4.1-3.1s-4.9,1.7-4.9,5.1h0ZM157.9,25.77c-1,1.8-3.2,2.5-5.2,2.5-4.5,0-7.1-3.3-7.1-7.4v-11.7h5.1v10.8c0,2.1,1.1,3.8,3.4,3.8s3.5-1.5,3.5-3.7v-11h5.1v15.3c0,1.4.1,2.7.2,3.4h-4.9c0-.4-.1-1.2-.1-2h0ZM179.6,14.17c-.6-.1-1.1-.1-1.5-.1-2.6,0-4.8,1.2-4.8,5.3v8.5h-5.1V9.17h4.9v2.8c1.1-2.5,3.7-2.9,5.3-2.9.4,0,.8,0,1.2.1v5h0ZM185.8-.13c1.8,0,3.1,1.4,3.1,3.1s-1.4,3.1-3.1,3.1-3.1-1.4-3.1-3.1,1.4-3.1,3.1-3.1ZM183.3,27.77V9.07h5.1v18.7h-5.1ZM200.1,9.17h3.8v4.5h-3.8v7.8c0,1.6.8,2.2,2.2,2.2.6,0,1.3-.1,1.6-.2v4.2c-.5.2-1.4.5-2.9.5-3.6,0-5.9-2.2-5.9-5.8v-8.7h-3.4v-4.5h.9c2,0,2.9-1.3,2.9-3v-2.6h4.6v5.6h0ZM209.8,35.17l4.4-9.7-7.9-16.3h5.7l5,10.9,4.6-10.9h5.4l-11.7,26.1-5.5-.1h0ZM238.4,14.37c0-8.6,6.5-14.1,13.7-14.1s11.3,4.6,12.4,8.9l-4.9,1.6c-.6-2.6-2.7-5.4-7.4-5.4-4,0-8.3,2.9-8.3,9,0,5.7,4,8.9,8.4,8.9s6.8-3,7.6-5.5l4.9,1.5c-1,4.1-4.9,9.2-12.5,9.2s-13.9-5.5-13.9-14.1h0ZM284.8,22.47c-1,3.2-3.9,5.9-8.5,5.9-5.1,0-9.6-3.7-9.6-10s4.4-9.8,9.2-9.8c5.8,0,9.2,3.7,9.2,9.7,0,.7-.1,1.5-.1,1.6h-13.4c.1,2.5,2.2,4.3,4.7,4.3s3.6-1.2,4.2-2.9l4.3,1.2h0ZM280.1,16.37c-.1-1.9-1.3-3.7-4.2-3.7-2.6,0-4.1,2-4.2,3.7h8.4ZM294.2,27.77h-5V9.07h4.9v2.3c1.1-1.9,3.4-2.8,5.4-2.8,4.6,0,6.8,3.3,6.8,7.4v11.8h-5v-10.9c0-2.1-1-3.7-3.5-3.7-2.2,0-3.5,1.7-3.5,3.9l-.1,10.7h0ZM317.7,9.17h3.8v4.5h-3.8v7.8c0,1.6.8,2.2,2.2,2.2.6,0,1.3-.1,1.6-.2v4.2c-.5.2-1.4.5-2.9.5-3.6,0-5.9-2.2-5.9-5.8v-8.7h-3.4v-4.5h1c2,0,2.9-1.3,2.9-3v-2.6h4.6l-.1,5.6h0ZM342.5,22.47c-1,3.2-3.9,5.9-8.5,5.9-5.1,0-9.6-3.7-9.6-10s4.4-9.8,9.2-9.8c5.8,0,9.2,3.7,9.2,9.7,0,.7-.1,1.5-.1,1.6h-13.4c.1,2.5,2.2,4.3,4.7,4.3s3.6-1.2,4.2-2.9l4.3,1.2h0ZM337.8,16.37c-.1-1.9-1.3-3.7-4.2-3.7-2.6,0-4.1,2-4.2,3.7h8.4ZM358.2,14.17c-.6-.1-1.1-.1-1.5-.1-2.6,0-4.8,1.2-4.8,5.3v8.5h-5V9.17h4.9v2.8c1.1-2.5,3.7-2.9,5.3-2.9.4,0,.8,0,1.2.1l-.1,5h0ZM94.9,46.27c-.3-1.5-1.5-3.8-4.9-3.8-2.6,0-4.2,1.6-4.2,3.4,0,1.5.9,2.7,2.9,3l3.8.7c4.9,1,7.5,4.1,7.5,7.9,0,4.1-3.5,8.3-9.7,8.3-7.1,0-10.3-4.6-10.7-8.4l4.9-1.3c.2,2.7,2.1,5.1,5.9,5.1,2.8,0,4.4-1.4,4.4-3.3,0-1.6-1.2-2.8-3.3-3.2l-3.8-.8c-4.3-.9-7.1-3.7-7.1-7.7,0-4.8,4.3-8.4,9.4-8.4,6.5,0,9,4,9.7,7l-4.8,1.5h0ZM108.5,54.57l4.6-.7c1.1-.2,1.4-.7,1.4-1.3,0-1.3-1-2.4-3.2-2.4s-3.4,1.4-3.6,3l-4.5-1c.3-2.9,3-6.2,8-6.2,5.9,0,8.1,3.3,8.1,7.1v9.3c0,1,.1,2.3.2,3h-4.6c-.1-.5-.2-1.5-.2-2.2-.9,1.5-2.7,2.8-5.5,2.8-4,0-6.4-2.7-6.4-5.6.1-3.5,2.6-5.4,5.7-5.8h0ZM114.5,57.77v-.8l-4.2.7c-1.3.2-2.3.9-2.3,2.4,0,1.1.8,2.2,2.4,2.2,2.1-.2,4.1-1.2,4.1-4.5h0ZM129,54.57l4.6-.7c1.1-.2,1.4-.7,1.4-1.3,0-1.3-1-2.4-3.1-2.4s-3.4,1.4-3.6,3l-4.5-1c.3-2.9,3-6.2,8-6.2,5.9,0,8.1,3.3,8.1,7.1v9.3c0,1,.1,2.3.2,3h-4.6c-.1-.5-.2-1.5-.2-2.2-.9,1.5-2.7,2.8-5.5,2.8-4,0-6.4-2.7-6.4-5.6,0-3.5,2.5-5.4,5.6-5.8h0ZM135,57.77v-.8l-4.2.7c-1.3.2-2.3.9-2.3,2.4,0,1.1.8,2.2,2.4,2.2,2.1-.2,4.1-1.2,4.1-4.5h0ZM158.9,46.27c-.3-1.5-1.5-3.8-4.9-3.8-2.6,0-4.2,1.6-4.2,3.4,0,1.5.9,2.7,2.9,3l3.8.7c4.9,1,7.5,4.1,7.5,7.9,0,4.1-3.5,8.3-9.7,8.3-7.1,0-10.3-4.6-10.7-8.4l4.9-1.3c.2,2.7,2.1,5.1,5.9,5.1,2.8,0,4.4-1.4,4.4-3.3,0-1.6-1.2-2.8-3.3-3.2l-3.8-.8c-4.3-.9-7.1-3.7-7.1-7.7,0-4.8,4.3-8.4,9.4-8.4,6.5,0,9,4,9.6,7l-4.7,1.5h0Z"/>
</svg>