<?xml version="1.0" encoding="UTF-8"?><svg xmlns="http://www.w3.org/2000/svg" viewBox="0 0 358.83 73.29"><defs><style>.f{fill:#bc204b;}.g{fill:#1b365d;}</style></defs><g id="a"/><g id="b"><g id="c"><g id="d"><path class="g" d="M94.81,49.78l-3.81-.73c-2-.38-2.93-1.56-2.93-3,0-1.79,1.67-3.42,4.22-3.42,2.37-.19,4.49,1.46,4.9,3.8l4.81-1.48c-.61-3-3.12-7-9.65-7-5.09,0-9.38,3.65-9.38,8.43,0,4.07,2.77,6.84,7.07,7.71l3.76,.76c2.09,.42,3.27,1.63,3.27,3.19,0,1.9-1.56,3.31-4.37,3.31-3.8,0-5.66-2.39-5.89-5.05l-4.92,1.33c.42,3.84,3.57,8.43,10.71,8.43,6.27,0,9.73-4.18,9.73-8.32,0-3.82-2.62-7.01-7.52-7.96Zm0-37.5l-3.81-.73c-2-.38-2.93-1.56-2.93-3,0-1.79,1.67-3.42,4.22-3.42,2.37-.19,4.49,1.46,4.9,3.8l4.81-1.48c-.61-3-3.12-7-9.65-7-5.09,0-9.38,3.65-9.38,8.43,0,4.07,2.77,6.84,7.07,7.71l3.76,.76c2.09,.42,3.27,1.63,3.27,3.19,0,1.9-1.56,3.31-4.37,3.31-3.8,0-5.66-2.39-5.89-5.05l-4.86,1.29c.42,3.84,3.57,8.43,10.71,8.43,6.27,0,9.73-4.18,9.73-8.32-.06-3.78-2.68-6.97-7.58-7.92Zm19,45.44l-5-10.94h-5.66l7.94,16.34-4.41,9.73h5.32l11.74-26.06h-5.4l-4.53,10.93Zm22.31-33.81c-2.58,0-4.79-1.9-4.79-5.28s2.17-5.24,4.75-5.24c1.96-.08,3.7,1.24,4.14,3.15l4.52-1.52c-.8-3.15-3.68-6.31-8.78-6.31-5.28-.09-9.64,4.13-9.73,9.41,0,.17,0,.34,0,.51-.14,5.34,4.08,9.78,9.42,9.92,.14,0,.28,0,.42,0,4.02,.18,7.64-2.43,8.74-6.31l-4.45-1.48c-.53,1.92-2.3,3.22-4.29,3.14h.04Zm1.06,22.39c-2.17-.07-4.21,.99-5.4,2.81v-2.33h-4.9v18.7h5.05v-10.76c0-2.17,1.29-3.87,3.5-3.87,2.43,0,3.46,1.63,3.46,3.72v10.9h5.05v-11.77c-.04-4.06-2.16-7.41-6.8-7.41h.04Zm-22.69-17.74c4.6,0,7.56-2.7,8.51-5.93l-4.22-1.25c-.59,1.82-2.35,3-4.26,2.85-2.46,.09-4.55-1.79-4.71-4.25h13.37c0-.08,.08-.84,.08-1.56,0-6-3.46-9.69-9.23-9.69-4.79,0-9.19,3.88-9.19,9.84,0,6.3,4.52,9.99,9.65,9.99Zm-.38-15.73c2.89,0,4.1,1.82,4.18,3.69h-8.36c.17-2.16,2.02-3.79,4.18-3.69Zm73.3-6.57c1.72,.1,3.19-1.22,3.29-2.94S189.48,.1,187.76,0c-.12,0-.24,0-.35,0-1.72-.1-3.19,1.22-3.29,2.94s1.22,3.19,2.94,3.29c.12,0,.24,0,.35,0Zm23.75,29.1h5.36l11.74-26.06h-5.39l-4.6,10.94-5-10.94h-5.66l7.96,16.35-4.41,9.71Zm-54.33,10.86c-4.79,0-9.19,3.88-9.19,9.84,0,6.31,4.52,10,9.65,10,4.6,0,7.56-2.7,8.51-5.93l-4.22-1.25c-.59,1.82-2.34,3-4.25,2.85-2.46,.09-4.55-1.79-4.71-4.25h13.38c0-.08,.08-.84,.08-1.56-.02-6.01-3.48-9.7-9.25-9.7Zm-4.1,7.79c.17-2.16,2.02-3.79,4.18-3.69,2.89,0,4.1,1.82,4.18,3.69h-8.36Zm32.18-26h5.09V9.27h-5.05l-.04,18.72Zm-29.75,.49c2.04,.11,4-.84,5.17-2.51,0,.67,.05,1.34,.15,2h4.83c-.13-1.12-.19-2.25-.19-3.38V9.27h-5.05v10.87c.18,1.85-1.18,3.5-3.03,3.68-.17,.02-.33,.02-.5,.01-2.36,0-3.42-1.67-3.42-3.76V9.27h-5.12v11.82c0,4.07,2.63,7.37,7.15,7.37v.02ZM334.2,8.7c-4.79,0-9.19,3.88-9.19,9.84,0,6.31,4.52,10,9.65,10,4.6,0,7.56-2.7,8.51-5.93l-4.17-1.25c-.59,1.82-2.34,3-4.25,2.85-2.48,.11-4.59-1.78-4.75-4.26h13.37c0-.08,.08-.84,.08-1.56,0-6-3.45-9.69-9.25-9.69Zm-4.1,7.79c.17-2.16,2.02-3.79,4.18-3.69,2.89,0,4.1,1.82,4.18,3.69h-8.36Zm-76.8,6.92c-4.33,0-8.36-3.15-8.36-8.89,0-6.12,4.25-9,8.28-9,4.67,0,6.76,2.85,7.41,5.43l4.94-1.56c-1.06-4.37-4.9-8.93-12.35-8.93-7.51-.07-13.66,5.96-13.73,13.47,0,.2,0,.39,0,.59,0,8.59,6.27,14,13.79,14s11.44-5,12.46-9.16l-4.9-1.48c-.91,3.38-4.05,5.68-7.55,5.53Zm-15,35.41c-1.91,.02-3.44,1.59-3.42,3.5,.02,1.91,1.59,3.44,3.5,3.42,1.9-.02,3.42-1.56,3.42-3.46,0-1.92-1.56-3.47-3.48-3.46h-.02Zm38.6-50.12c-4.79,0-9.19,3.88-9.19,9.84,0,6.31,4.52,10,9.65,10,4.6,0,7.56-2.7,8.51-5.93l-4.22-1.25c-.59,1.82-2.34,3-4.25,2.85-2.46,.09-4.55-1.79-4.71-4.25h13.37c0-.08,.08-.84,.08-1.56,0-6.01-3.46-9.7-9.24-9.7Zm-4.1,7.79c.17-2.16,2.03-3.8,4.2-3.68,2.89,0,4.1,1.82,4.18,3.69h-8.38Zm84.85-7.38c-1.6,0-4.18,.46-5.32,2.93v-2.78h-4.9V27.97h5.05v-8.55c0-4,2.24-5.28,4.83-5.28,.51,0,1.02,.05,1.52,.15v-5.09c-.39-.05-.79-.07-1.18-.08Zm-57.23-.34c-2.18-.07-4.24,1.01-5.42,2.85v-2.36h-4.9V27.97h5.05v-10.76c0-2.17,1.29-3.87,3.5-3.87,2.43,0,3.46,1.63,3.46,3.72v10.9h5.05v-11.77c.03-4.1-2.1-7.41-6.74-7.41h0Zm18.13-5.09h-4.55v2.62c.18,1.48-.88,2.81-2.35,2.99-.18,.02-.36,.02-.54,.01h-.95v4.48h3.38v8.7c0,3.61,2.28,5.78,5.93,5.78,.97,.03,1.94-.12,2.85-.46v-4.18c-.51,.11-1.04,.16-1.56,.15-1.44,0-2.2-.53-2.2-2.17v-7.85h3.76v-4.49h-3.76V3.69ZM175,49.55v-2.78h-5v18.7h5.05v-8.55c0-4,2.24-5.28,4.83-5.28,.51,0,1.02,.05,1.52,.15v-5.09c-.39-.05-.79-.07-1.18-.08-1.55,.01-4.13,.46-5.22,2.93Zm22.57-.57c-.65-1.25-2.36-2.54-5.32-2.54-5.13,0-8.7,4.18-8.7,9.12,0,5.24,3.72,9.08,8.7,9.08,2.03,.15,4-.75,5.21-2.39v1.38c0,3.61-1.79,5.21-5,5.21-2.15,.12-4.03-1.41-4.37-3.53l-4.56,1.22c.53,3.57,4,6.76,9.08,6.76,7,0,9.8-4.67,9.8-9.8v-16.72h-4.86l.02,2.21Zm-4.45,11.32c-2.62,0-4.48-1.82-4.48-4.75-.12-2.45,1.78-4.54,4.23-4.66,2.45-.12,4.54,1.78,4.66,4.23,0,.14,0,.28,0,.42-.05,2.89-1.87,4.75-4.45,4.75h.04Zm-18.12-40.88c0-4,2.24-5.28,4.83-5.28,.51,0,1.02,.05,1.52,.15v-5.09c-.39-.05-.79-.07-1.18-.08-1.6,0-4.18,.46-5.32,2.93v-2.78h-4.9V27.97h5.05v-8.55Zm26.6-15.73h-4.6v2.62c.18,1.48-.88,2.81-2.35,2.99-.18,.02-.36,.02-.54,.01h-.95v4.48h3.38v8.7c0,3.61,2.28,5.78,5.93,5.78,.97,.03,1.94-.12,2.85-.46v-4.18c-.51,.11-1.04,.16-1.56,.15-1.44,0-2.2-.53-2.2-2.17v-7.85h3.76v-4.49h-3.76l.04-5.58Zm23.9,50.46l-2.66-.57c-1-.19-1.71-.76-1.71-1.67,.15-1.17,1.22-2,2.39-1.86,1.54-.13,2.9,.98,3.08,2.51l4.22-1c-.23-2-2-5.4-7.33-5.4-4,0-7,2.77-7,6.12,0,2.62,1.63,4.79,5.24,5.58l2.47,.57c1.44,.3,2,1,2,1.82,0,1-.8,1.86-2.47,1.86-1.71,.18-3.24-1.07-3.41-2.77,0-.03,0-.05,0-.08l-4.33,1c.23,2.13,2.17,5.77,7.79,5.77,4.9,0,7.26-3.12,7.26-6.15-.03-2.73-1.85-4.98-5.54-5.73h0Zm-18.36,11.32h5.05v-18.7h-5.05v18.7Zm2.51-28c-1.72-.1-3.19,1.22-3.29,2.94s1.22,3.19,2.94,3.29c.12,0,.24,0,.35,0,1.72,.1,3.19-1.22,3.29-2.94s-1.22-3.19-2.94-3.29c-.12,0-.24,0-.35,0Z"/><path class="f" d="M18.61,23.21L46.54,7.08,37.23,1.7C34.35,.03,30.8,.03,27.92,1.7L4.64,15.14C1.76,16.8,0,19.88,0,23.21H0v26.88c0,3.33,1.77,6.4,4.65,8.06l9.35,5.37V31.27c-.01-3.32,1.75-6.39,4.61-8.06Zm45.44,1.2c-.41-.12-.86-.07-1.23,.15l-9.3,5.37c-1.43,.82-2.32,2.35-2.33,4v8.06c0,3.33-1.78,6.4-4.66,8.06l-27.93,16.16,9.32,5.42c2.88,1.66,6.43,1.66,9.31,0l23.27-13.48c2.88-1.66,4.65-4.74,4.65-8.06V25.9c0-.69-.44-1.29-1.1-1.49Zm-40.78,1.48c-2.88,1.66-4.65,4.74-4.65,8.06v24.2c0,.86,.69,1.55,1.55,1.55,.27,0,.54-.07,.78-.21l9.31-5.37c1.43-.82,2.32-2.35,2.33-4v-8.1c0-3.33,1.78-6.4,4.66-8.06l27.91-16.13-9.31-5.38c-2.88-1.66-6.43-1.66-9.31,0l-23.27,13.44Z"/></g><g id="e"><polygon class="f" points="60.98 5.11 60.99 5.11 62.54 8.89 62.96 8.89 64.51 5.11 64.53 5.11 64.53 8.89 65.15 8.89 65.15 4.29 64.22 4.29 62.77 7.77 62.75 7.77 61.28 4.29 60.35 4.29 60.35 8.89 60.98 8.89 60.98 5.11"/><polygon class="f" points="57.63 8.89 58.25 8.89 58.25 4.87 59.73 4.87 59.73 4.29 56.15 4.29 56.15 4.87 57.63 4.87 57.63 8.89"/><polygon class="g" points="243.82 44.67 243.79 44.67 242.33 41.19 241.4 41.19 241.4 45.79 242.03 45.79 242.03 42.01 242.03 42.01 243.59 45.79 244.01 45.79 245.56 42.01 245.57 42.01 245.57 45.79 246.2 45.79 246.2 41.19 245.27 41.19 243.82 44.67"/><polygon class="g" points="239.3 45.79 239.3 41.77 240.78 41.77 240.78 41.19 237.19 41.19 237.19 41.77 238.68 41.77 238.68 45.79 239.3 45.79"/></g></g></g></svg>